<mxfile host="app.diagrams.net" modified="2022-10-06T08:10:53.195Z" agent="5.0 (Windows)" etag="6Ljd8NE6S3kgDIfC1M7t" version="20.2.6" type="github">
  <diagram id="CDqq7pcVf6UIeNJJfWuc" name="Page-1">
    <mxGraphModel dx="782" dy="412" grid="1" gridSize="10" guides="1" tooltips="1" connect="1" arrows="1" fold="1" page="1" pageScale="1" pageWidth="850" pageHeight="1100" background="none" math="0" shadow="1">
      <root>
        <mxCell id="0" />
        <mxCell id="1" parent="0" />
        <mxCell id="feeIY1tUaP1cyDwpqvwu-5" value="" style="rounded=0;whiteSpace=wrap;html=1;fillColor=#dae8fc;strokeColor=#6c8ebf;" vertex="1" parent="1">
          <mxGeometry x="80" y="110" width="660" height="350" as="geometry" />
        </mxCell>
        <mxCell id="feeIY1tUaP1cyDwpqvwu-15" style="edgeStyle=orthogonalEdgeStyle;rounded=0;orthogonalLoop=1;jettySize=auto;html=1;entryX=0.125;entryY=0.515;entryDx=0;entryDy=0;entryPerimeter=0;" edge="1" parent="1" source="feeIY1tUaP1cyDwpqvwu-1" target="feeIY1tUaP1cyDwpqvwu-14">
          <mxGeometry relative="1" as="geometry" />
        </mxCell>
        <mxCell id="feeIY1tUaP1cyDwpqvwu-1" value="DELL BOOMI" style="shape=image;verticalLabelPosition=bottom;labelBackgroundColor=#ffffff;verticalAlign=top;aspect=fixed;imageAspect=0;image=data:image/svg+xml,PHN2ZyB4bWxuczpjYz0iaHR0cDovL2NyZWF0aXZlY29tbW9ucy5vcmcvbnMjIiB4bWxuczpkYz0iaHR0cDovL3B1cmwub3JnL2RjL2VsZW1lbnRzLzEuMS8iIHhtbG5zOmlua3NjYXBlPSJodHRwOi8vd3d3Lmlua3NjYXBlLm9yZy9uYW1lc3BhY2VzL2lua3NjYXBlIiB4bWxuczpyZGY9Imh0dHA6Ly93d3cudzMub3JnLzE5OTkvMDIvMjItcmRmLXN5bnRheC1ucyMiIHhtbG5zOnNvZGlwb2RpPSJodHRwOi8vc29kaXBvZGkuc291cmNlZm9yZ2UubmV0L0RURC9zb2RpcG9kaS0wLmR0ZCIgeG1sbnM6c3ZnPSJodHRwOi8vd3d3LnczLm9yZy8yMDAwL3N2ZyIgeG1sbnM9Imh0dHA6Ly93d3cudzMub3JnLzIwMDAvc3ZnIiB4bWxuczp4bGluaz0iaHR0cDovL3d3dy53My5vcmcvMTk5OS94bGluayIgdmVyc2lvbj0iMS4xIiBpZD0ic3ZnNjI4NDMiIGlua3NjYXBlOnZlcnNpb249IjAuOTIuMyAoMjQwNTU0NiwgMjAxOC0wMy0xMSkiIHNvZGlwb2RpOmRvY25hbWU9ImNsb3VkLnN2ZyIgeD0iMHB4IiB5PSIwcHgiIHZpZXdCb3g9IjAgMCAzNy4zNCAyNS43MyIgc3R5bGU9ImVuYWJsZS1iYWNrZ3JvdW5kOm5ldyAwIDAgMzcuMzQgMjUuNzM7IiB4bWw6c3BhY2U9InByZXNlcnZlIj4mI3hhOzxzb2RpcG9kaTpuYW1lZHZpZXcgYm9yZGVyY29sb3I9IiM2NjY2NjYiIGJvcmRlcm9wYWNpdHk9IjEiIGZpdC1tYXJnaW4tYm90dG9tPSIwIiBmaXQtbWFyZ2luLWxlZnQ9IjAiIGZpdC1tYXJnaW4tcmlnaHQ9IjAiIGZpdC1tYXJnaW4tdG9wPSIwIiBncmlkdG9sZXJhbmNlPSIxMCIgZ3VpZGV0b2xlcmFuY2U9IjEwIiBpZD0ibmFtZWR2aWV3NjI4NDUiIGlua3NjYXBlOmN1cnJlbnQtbGF5ZXI9InN2ZzYyODQzIiBpbmtzY2FwZTpjeD0iMjQuODk0NzMyIiBpbmtzY2FwZTpjeT0iMTcuMTUxMDg3IiBpbmtzY2FwZTpwYWdlb3BhY2l0eT0iMCIgaW5rc2NhcGU6cGFnZXNoYWRvdz0iMiIgaW5rc2NhcGU6d2luZG93LWhlaWdodD0iMTAxNyIgaW5rc2NhcGU6d2luZG93LW1heGltaXplZD0iMSIgaW5rc2NhcGU6d2luZG93LXdpZHRoPSIxOTIwIiBpbmtzY2FwZTp3aW5kb3cteD0iLTgiIGlua3NjYXBlOndpbmRvdy15PSItOCIgaW5rc2NhcGU6em9vbT0iMjUuMjY4ODgzIiBvYmplY3R0b2xlcmFuY2U9IjEwIiBwYWdlY29sb3I9IiNmZmZmZmYiIHNob3dncmlkPSJmYWxzZSI+JiN4YTsJPC9zb2RpcG9kaTpuYW1lZHZpZXc+JiN4YTs8ZyBpZD0iZzYyODQxIiB0cmFuc2Zvcm09InRyYW5zbGF0ZSgtNi4zMzc1MDQzZS01KSI+JiN4YTsJPHRpdGxlIGlkPSJ0aXRsZTYyODM0Ij5QYWdlLTE8L3RpdGxlPiYjeGE7CTxnIGlkPSJzaGFwZTU0MjktMSI+JiN4YTsJCTx0aXRsZSBpZD0idGl0bGU2MjgzNiI+Q2xvdWQ8L3RpdGxlPiYjeGE7CQk8cGF0aCBpZD0icGF0aDYyODM4IiBpbmtzY2FwZTpjb25uZWN0b3ItY3VydmF0dXJlPSIwIiBzdHlsZT0iZmlsbDojM0Y1NzY1OyIgZD0iTTguMTksMjUuNzNjMTkuMjQsMCwxOS4yNCwwLDE5LjI0LDAgICAgYzUuNTUsMCw5LjkxLTQuMzYsOS45MS05LjkxYzAtNS4yOS00LjA1LTkuNjUtOS4zMy05Ljk2QzI2LjI4LDIuMzcsMjIuNzYsMCwxOC42NywwQzEzLjQzLDAsOC43Niw0LjEsOC4xOSw5LjM4bDAsMCAgICBDMy44Myw5LjM4LDAsMTMuMTcsMCwxNy41OEMwLDIyLjI1LDMuODMsMjUuNzMsOC4xOSwyNS43M3ogTTguMTksMTEuNzJjMC4zLDAsMC41NywwLDAuODgsMC4zYzEuNDUsMCwxLjQ1LDAsMS40NSwwICAgIGMwLTEuNDksMC0xLjQ5LDAtMS40OWMwLTQuMzYsMy43OS04LjE2LDguMTUtOC4xNmMzLjUyLDAsNi40MywyLjAzLDcuNjEsNS4yNWMwLjI3LDAuNTcsMC4yNywwLjU3LDAuMjcsMC41NyAgICBjMC44OCwwLDAuODgsMCwwLjg4LDBjNC4xLDAsNy41OCwzLjUzLDcuNTgsNy42M2MwLDQuMzYtMy40OCw3LjU4LTcuNTgsNy41OGMtMTkuMjQsMC0xOS4yNCwwLTE5LjI0LDAgICAgYy0zLjIyLDAtNS44Ni0yLjYxLTUuODYtNS44MkMyLjMzLDE0LjM2LDQuOTcsMTEuNzIsOC4xOSwxMS43MnoiLz4mI3hhOwk8L2c+JiN4YTs8L2c+JiN4YTs8L3N2Zz4=;" vertex="1" parent="1">
          <mxGeometry x="300" y="256.00000000000045" width="37" height="26" as="geometry" />
        </mxCell>
        <mxCell id="feeIY1tUaP1cyDwpqvwu-19" style="edgeStyle=orthogonalEdgeStyle;rounded=0;orthogonalLoop=1;jettySize=auto;html=1;entryX=0;entryY=0.5;entryDx=0;entryDy=0;" edge="1" parent="1" source="feeIY1tUaP1cyDwpqvwu-2" target="feeIY1tUaP1cyDwpqvwu-1">
          <mxGeometry relative="1" as="geometry" />
        </mxCell>
        <mxCell id="feeIY1tUaP1cyDwpqvwu-2" value="SC US Agresso" style="shape=image;verticalLabelPosition=bottom;labelBackgroundColor=#ffffff;verticalAlign=top;aspect=fixed;imageAspect=0;image=data:image/svg+xml,PHN2ZyB4bWxuczpjYz0iaHR0cDovL2NyZWF0aXZlY29tbW9ucy5vcmcvbnMjIiB4bWxuczpkYz0iaHR0cDovL3B1cmwub3JnL2RjL2VsZW1lbnRzLzEuMS8iIHhtbG5zOmlua3NjYXBlPSJodHRwOi8vd3d3Lmlua3NjYXBlLm9yZy9uYW1lc3BhY2VzL2lua3NjYXBlIiB4bWxuczpyZGY9Imh0dHA6Ly93d3cudzMub3JnLzE5OTkvMDIvMjItcmRmLXN5bnRheC1ucyMiIHhtbG5zOnNvZGlwb2RpPSJodHRwOi8vc29kaXBvZGkuc291cmNlZm9yZ2UubmV0L0RURC9zb2RpcG9kaS0wLmR0ZCIgeG1sbnM6c3ZnPSJodHRwOi8vd3d3LnczLm9yZy8yMDAwL3N2ZyIgeG1sbnM9Imh0dHA6Ly93d3cudzMub3JnLzIwMDAvc3ZnIiB4bWxuczp4bGluaz0iaHR0cDovL3d3dy53My5vcmcvMTk5OS94bGluayIgdmVyc2lvbj0iMS4xIiBpZD0ic3ZnODU1MTkiIGlua3NjYXBlOnZlcnNpb249IjAuOTIuMyAoMjQwNTU0NiwgMjAxOC0wMy0xMSkiIHNvZGlwb2RpOmRvY25hbWU9Imh0dHAuc3ZnIiB4PSIwcHgiIHk9IjBweCIgdmlld0JveD0iMCAwIDQ4IDQ4IiBzdHlsZT0iZW5hYmxlLWJhY2tncm91bmQ6bmV3IDAgMCA0OCA0ODsiIHhtbDpzcGFjZT0icHJlc2VydmUiPiYjeGE7PHNvZGlwb2RpOm5hbWVkdmlldyBib3JkZXJjb2xvcj0iIzY2NjY2NiIgYm9yZGVyb3BhY2l0eT0iMSIgZml0LW1hcmdpbi1ib3R0b209IjAiIGZpdC1tYXJnaW4tbGVmdD0iMCIgZml0LW1hcmdpbi1yaWdodD0iMCIgZml0LW1hcmdpbi10b3A9IjAiIGdyaWR0b2xlcmFuY2U9IjEwIiBndWlkZXRvbGVyYW5jZT0iMTAiIGlkPSJuYW1lZHZpZXc4NTUyMSIgaW5rc2NhcGU6Y3VycmVudC1sYXllcj0ic3ZnODU1MTkiIGlua3NjYXBlOmN4PSIzMi4xMzUwMjQiIGlua3NjYXBlOmN5PSIzMi4wMDA3NjkiIGlua3NjYXBlOnBhZ2VvcGFjaXR5PSIwIiBpbmtzY2FwZTpwYWdlc2hhZG93PSIyIiBpbmtzY2FwZTp3aW5kb3ctaGVpZ2h0PSIxMDE3IiBpbmtzY2FwZTp3aW5kb3ctbWF4aW1pemVkPSIxIiBpbmtzY2FwZTp3aW5kb3ctd2lkdGg9IjE5MjAiIGlua3NjYXBlOndpbmRvdy14PSItOCIgaW5rc2NhcGU6d2luZG93LXk9Ii04IiBpbmtzY2FwZTp6b29tPSIxMy4xMzYzNjQiIG9iamVjdHRvbGVyYW5jZT0iMTAiIHBhZ2Vjb2xvcj0iI2ZmZmZmZiIgc2hvd2dyaWQ9ImZhbHNlIj4mI3hhOwk8L3NvZGlwb2RpOm5hbWVkdmlldz4mI3hhOzxnIGlkPSJnODU1MTciIHRyYW5zZm9ybT0idHJhbnNsYXRlKC0wLjc5NSwtMC43NSkiPiYjeGE7CTx0aXRsZSBpZD0idGl0bGU4NTQ0MCI+UGFnZS0xPC90aXRsZT4mI3hhOwk8ZyBpZD0iZ3JvdXA1MjQ5LTEiIHRyYW5zZm9ybT0idHJhbnNsYXRlKDAuNzk1LC0wLjc1KSI+JiN4YTsJCTx0aXRsZSBpZD0idGl0bGU4NTQ0MiI+SFRUUDwvdGl0bGU+JiN4YTsJCTxnIGlkPSJzaGFwZTUyNTAtMiI+JiN4YTsJCQk8dGl0bGUgaWQ9InRpdGxlODU0NDQiPmNpcmNsZTE1MDU1PC90aXRsZT4mI3hhOwkJCTxjaXJjbGUgaWQ9ImVsbGlwc2U4NTQ0NiIgc3R5bGU9ImZpbGw6I0ZGRkZGRjsiIGN4PSIyNCIgY3k9IjI1LjUiIHI9IjI0Ii8+JiN4YTsJCTwvZz4mI3hhOwkJPGcgaWQ9InNoYXBlNTI1MS00IiB0cmFuc2Zvcm09InRyYW5zbGF0ZSgxLjQ5NzE5LC0xLjMxMjUpIj4mI3hhOwkJCTx0aXRsZSBpZD0idGl0bGU4NTQ0OSI+cGF0aDE1MDU3PC90aXRsZT4mI3hhOwkJCTxwYXRoIGlkPSJwYXRoODU0NTEiIGlua3NjYXBlOmNvbm5lY3Rvci1jdXJ2YXR1cmU9IjAiIHN0eWxlPSJmaWxsOiNGRkZGRkY7IiBkPSJNNDUuMzgsMjYuNjNjMCwwLjA2LDAsMC4xMiwwLDAuMTggICAgIGMwLDEyLjUzLTEwLjE2LDIyLjY5LTIyLjY5LDIyLjY5UzAsMzkuMzQsMCwyNi44MWMwLTAuMDYsMC0wLjEyLDAtMC4xOEMwLDE0LjEsMTAuMTYsMy45NCwyMi42OSwzLjk0UzQ1LjM4LDE0LjEsNDUuMzgsMjYuNjN6Ii8+JiN4YTsJCTwvZz4mI3hhOwkJPGcgaWQ9InNoYXBlNTI1Mi02IiB0cmFuc2Zvcm09InRyYW5zbGF0ZSg0LjE2MjUsLTM1LjI1KSI+JiN4YTsJCQk8dGl0bGUgaWQ9InRpdGxlODU0NTQiPnBhdGgxNTA1OTwvdGl0bGU+JiN4YTsJCQk8cGF0aCBpZD0icGF0aDg1NDU2IiBpbmtzY2FwZTpjb25uZWN0b3ItY3VydmF0dXJlPSIwIiBzdHlsZT0iZmlsbDpub25lOyIgZD0iTTAsNDcuN2MzLjI1LDEuMDUsMTAuODQsMS44LDE5Ljc1LDEuOCAgICAgYzguNjUsMCwxNi4xMS0wLjcsMTkuNS0xLjcyTDAsNDcuN3oiLz4mI3hhOwkJCSYjeGE7CQkJCTxwYXRoIGlkPSJwYXRoODU0NTgiIGlua3NjYXBlOmNvbm5lY3Rvci1jdXJ2YXR1cmU9IjAiIHN0eWxlPSJmaWxsOm5vbmU7c3Ryb2tlOiNEM0QzRDM7c3Ryb2tlLXdpZHRoOjEuNTtzdHJva2UtbWl0ZXJsaW1pdDozOyIgZD0iICAgICBNMCw0Ny43YzMuMjUsMS4wNSwxMC44NCwxLjgsMTkuNzUsMS44YzguNjUsMCwxNi4xMS0wLjcsMTkuNS0xLjcyIi8+JiN4YTsJCTwvZz4mI3hhOwkJPGcgaWQ9InNoYXBlNTI1My05IiB0cmFuc2Zvcm09InRyYW5zbGF0ZSgxMy40NCwtMjIuNzcpIj4mI3hhOwkJCTx0aXRsZSBpZD0idGl0bGU4NTQ2MSI+cGF0aDE1MDYxPC90aXRsZT4mI3hhOwkJCTxwYXRoIGlkPSJwYXRoODU0NjMiIGlua3NjYXBlOmNvbm5lY3Rvci1jdXJ2YXR1cmU9IjAiIHN0eWxlPSJmaWxsOiNEM0QzRDM7IiBkPSJNMTAuNTYsMjYuMjVjNC4yMSwwLDguODgsOC45LDkuMDUsMjEuNzVIMS41MSAgICAgQzEuNjgsMzUuMTUsNi4zNiwyNi4yNSwxMC41NiwyNi4yNXogTTEwLjU2LDI0Ljc1QzQuNzIsMjQuNzUsMCwzNS41LDAsNDguNzVjMCwwLjI2LDAsMC41LDAsMC43NWgyMS4xMWMwLTAuMjUsMC0wLjQ5LDAtMC43NSAgICAgYzAtMTMuMjUtNC43Mi0yNC0xMC41Ni0yNEgxMC41NnoiLz4mI3hhOwkJPC9nPiYjeGE7CQk8ZyBpZD0ic2hhcGU1MjU0LTExIiB0cmFuc2Zvcm09InRyYW5zbGF0ZSgxLjEzMjUsLTEuMTI1KSI+JiN4YTsJCQk8dGl0bGUgaWQ9InRpdGxlODU0NjYiPnBhdGgxNTA2MzwvdGl0bGU+JiN4YTsJCQk8cGF0aCBpZD0icGF0aDg1NDY4IiBpbmtzY2FwZTpjb25uZWN0b3ItY3VydmF0dXJlPSIwIiBzdHlsZT0iZmlsbDojNTVEMkY2OyIgZD0iTTIzLjA1LDQ5LjVDMTAuNCw0OS40NywwLjEzLDM5LjI3LDAsMjYuNjMgICAgIHYtMC4zOGg0Ni4xMnYwLjM4QzQ1Ljk5LDM5LjI4LDM1LjcsNDkuNDgsMjMuMDUsNDkuNXoiLz4mI3hhOwkJPC9nPiYjeGE7CQk8ZyBpZD0ic2hhcGU1MjU1LTEzIiB0cmFuc2Zvcm09InRyYW5zbGF0ZSgxLjUsLTcuMDI5NDQpIj4mI3hhOwkJCTx0aXRsZSBpZD0idGl0bGU4NTQ3MSI+cGF0aDE1MDY1PC90aXRsZT4mI3hhOwkJCTxwYXRoIGlkPSJwYXRoODU0NzMiIGlua3NjYXBlOmNvbm5lY3Rvci1jdXJ2YXR1cmU9IjAiIHN0eWxlPSJmaWxsOiM1NTZBOEE7IiBkPSJNMjIuNSwxMC4wM2MxMi40MywwLDIyLjUsMTAuMDcsMjIuNSwyMi41ICAgICBzLTEwLjA3LDIyLjUtMjIuNSwyMi41UzAsNDQuOTYsMCwzMi41M2wwLDBDMCwyMC4xLDEwLjA3LDEwLjAzLDIyLjUsMTAuMDN6IE0yMi41LDguNTNjLTEzLjI1LDAtMjQsMTAuNzUtMjQsMjRzMTAuNzUsMjQsMjQsMjQgICAgIHMyNC0xMC43NSwyNC0yNGwwLDBDNDYuNSwxOS4yOCwzNS43NSw4LjUzLDIyLjUsOC41M3oiLz4mI3hhOwkJPC9nPiYjeGE7CQk8ZyBpZD0ic2hhcGU1MjU2LTE1IiB0cmFuc2Zvcm09InRyYW5zbGF0ZSg0LjE2MjUsLTExLjc2KSI+JiN4YTsJCQk8dGl0bGUgaWQ9InRpdGxlODU0NzYiPnBhdGgxNTA2NzwvdGl0bGU+JiN4YTsJCQk8cGF0aCBpZD0icGF0aDg1NDc4IiBpbmtzY2FwZTpjb25uZWN0b3ItY3VydmF0dXJlPSIwIiBzdHlsZT0iZmlsbDpub25lOyIgZD0iTTAsNDkuNWMzLjI1LTEuMDYsMTAuODctMS44LDE5Ljc1LTEuOCAgICAgYzguNjUsMCwxNi4xMSwwLjcxLDE5LjUsMS43M0wwLDQ5LjV6Ii8+JiN4YTsJCQkmI3hhOwkJCQk8cGF0aCBpZD0icGF0aDg1NDgwIiBpbmtzY2FwZTpjb25uZWN0b3ItY3VydmF0dXJlPSIwIiBzdHlsZT0iZmlsbDpub25lO3N0cm9rZTojNTU2QThBO3N0cm9rZS13aWR0aDoxLjU7c3Ryb2tlLW1pdGVybGltaXQ6MzsiIGQ9IiAgICAgTTAsNDkuNWMzLjI1LTEuMDYsMTAuODctMS44LDE5Ljc1LTEuOGM4LjY1LDAsMTYuMTEsMC43MSwxOS41LDEuNzMiLz4mI3hhOwkJPC9nPiYjeGE7CQk8ZyBpZD0ic2hhcGU1MjU3LTE4IiB0cmFuc2Zvcm09InRyYW5zbGF0ZSgwLjcwNSwtMjQpIj4mI3hhOwkJCTx0aXRsZSBpZD0idGl0bGU4NTQ4MyI+bGluZTE1MDY5PC90aXRsZT4mI3hhOwkJCSYjeGE7CQkJCTxwYXRoIGlkPSJwYXRoODU0ODUiIGlua3NjYXBlOmNvbm5lY3Rvci1jdXJ2YXR1cmU9IjAiIHN0eWxlPSJmaWxsOm5vbmU7c3Ryb2tlOiM1NTZBOEE7c3Ryb2tlLXdpZHRoOjEuNTtzdHJva2UtbWl0ZXJsaW1pdDozOyIgZD0iICAgICBNMCw0OS41aDQ2Ljc5Ii8+JiN4YTsJCTwvZz4mI3hhOwkJPGcgaWQ9Imdyb3VwNTI1OC0yMSIgdHJhbnNmb3JtPSJ0cmFuc2xhdGUoOC42Nzc1LC0yNi43NTI1KSI+JiN4YTsJCQk8dGl0bGUgaWQ9InRpdGxlODU0ODgiPmcxNTA3OTwvdGl0bGU+JiN4YTsJCQk8ZyBpZD0ic2hhcGU1MjU5LTIyIj4mI3hhOwkJCQk8dGl0bGUgaWQ9InRpdGxlODU0OTAiPnBhdGgxNTA3MTwvdGl0bGU+JiN4YTsJCQkJPHBhdGggaWQ9InBhdGg4NTQ5MiIgaW5rc2NhcGU6Y29ubmVjdG9yLWN1cnZhdHVyZT0iMCIgc3R5bGU9ImZpbGw6IzU1NkE4QTsiIGQ9Ik03LjU5LDQ5LjQ5SDYuMDFWNDUuNEgxLjU3djQuMUgwdi05LjQ2aDEuNTcgICAgICBWNDRoNC40NHYtMy45N2gxLjU4VjQ5LjQ5eiIvPiYjeGE7CQkJPC9nPiYjeGE7CQkJPGcgaWQ9InNoYXBlNTI2MC0yNCIgdHJhbnNmb3JtPSJ0cmFuc2xhdGUoOSwtMC4wMDc1KSI+JiN4YTsJCQkJPHRpdGxlIGlkPSJ0aXRsZTg1NDk1Ij5wYXRoMTUwNzM8L3RpdGxlPiYjeGE7CQkJCTxwYXRoIGlkPSJwYXRoODU0OTciIGlua3NjYXBlOmNvbm5lY3Rvci1jdXJ2YXR1cmU9IjAiIHN0eWxlPSJmaWxsOiM1NTZBOEE7IiBkPSJNNi45OSw0MS4zOUg0LjI3djguMTFIMi43MXYtOC4xMUgwdi0xLjM0aDcgICAgICBMNi45OSw0MS4zOXoiLz4mI3hhOwkJCTwvZz4mI3hhOwkJCTxnIGlkPSJzaGFwZTUyNjEtMjYiIHRyYW5zZm9ybT0idHJhbnNsYXRlKDE2LjcxLC0wLjAwNzUpIj4mI3hhOwkJCQk8dGl0bGUgaWQ9InRpdGxlODU1MDAiPnBhdGgxNTA3NTwvdGl0bGU+JiN4YTsJCQkJPHBhdGggaWQ9InBhdGg4NTUwMiIgaW5rc2NhcGU6Y29ubmVjdG9yLWN1cnZhdHVyZT0iMCIgc3R5bGU9ImZpbGw6IzU1NkE4QTsiIGQ9Ik02Ljk5LDQxLjM5SDQuMjd2OC4xMUgyLjcxdi04LjExSDB2LTEuMzRoNyAgICAgIEw2Ljk5LDQxLjM5eiIvPiYjeGE7CQkJPC9nPiYjeGE7CQkJPGcgaWQ9InNoYXBlNTI2Mi0yOCIgdHJhbnNmb3JtPSJ0cmFuc2xhdGUoMjUuMDcyNSwtMC4wMDc1KSI+JiN4YTsJCQkJPHRpdGxlIGlkPSJ0aXRsZTg1NTA1Ij5wYXRoMTUwNzc8L3RpdGxlPiYjeGE7CQkJCTxwYXRoIGlkPSJwYXRoODU1MDciIGlua3NjYXBlOmNvbm5lY3Rvci1jdXJ2YXR1cmU9IjAiIHN0eWxlPSJmaWxsOiM1NTZBOEE7IiBkPSJNMS41Nyw0Ni4wN3YzLjQzSDB2LTkuNDVoMi44NiAgICAgIGMwLjkxLTAuMDYsMS44LDAuMjEsMi41MywwLjc1YzAuNjEsMC41NCwwLjk1LDEuMzMsMC45LDIuMTRjMC4wMywwLjg1LTAuMzIsMS42Ny0wLjk0LDIuMjVjLTAuNjksMC42MS0xLjYsMC45My0yLjUyLDAuODhIMS41NyAgICAgIHogTTEuNTcsNDEuMzR2My40MmgxLjAyYzAuNTQsMC4wMywxLjA3LTAuMTMsMS41LTAuNDZjMC4zNi0wLjM0LDAuNTUtMC44MiwwLjUyLTEuMzJjMC0xLjExLTAuNjQtMS42Ny0xLjkzLTEuNjdMMS41Nyw0MS4zNHoiLz4mI3hhOwkJCTwvZz4mI3hhOwkJPC9nPiYjeGE7CQk8ZyBpZD0ic2hhcGU1MjYzLTMwIiB0cmFuc2Zvcm09InRyYW5zbGF0ZSgxMy40NDc1KSI+JiN4YTsJCQk8dGl0bGUgaWQ9InRpdGxlODU1MTEiPnBhdGgxNTA4MTwvdGl0bGU+JiN4YTsJCQk8cGF0aCBpZD0icGF0aDg1NTEzIiBpbmtzY2FwZTpjb25uZWN0b3ItY3VydmF0dXJlPSIwIiBzdHlsZT0iZmlsbDojNTU2QThBOyIgZD0iTTE5LjYsMjYuMjVDMTkuNDMsMzkuMTEsMTQuNzYsNDgsMTAuNTUsNDggICAgIFMxLjY3LDM5LjExLDEuNSwyNi4yNUgxOS42eiBNMjEuMSwyNC43NUgwYzAsMC4yNSwwLDAuNSwwLDAuNzVjMCwxMy4yNSw0LjcyLDI0LDEwLjU2LDI0YzUuODMsMCwxMC41NS0xMC43NSwxMC41NS0yNCAgICAgYzAtMC4yNSwwLTAuNSwwLTAuNzVIMjEuMXoiLz4mI3hhOwkJPC9nPiYjeGE7CTwvZz4mI3hhOzwvZz4mI3hhOzwvc3ZnPg==;" vertex="1" parent="1">
          <mxGeometry x="170" y="130" width="48" height="48" as="geometry" />
        </mxCell>
        <mxCell id="feeIY1tUaP1cyDwpqvwu-11" style="edgeStyle=orthogonalEdgeStyle;rounded=0;orthogonalLoop=1;jettySize=auto;html=1;" edge="1" parent="1" source="feeIY1tUaP1cyDwpqvwu-3" target="feeIY1tUaP1cyDwpqvwu-1">
          <mxGeometry relative="1" as="geometry" />
        </mxCell>
        <mxCell id="feeIY1tUaP1cyDwpqvwu-3" value="AMS" style="shape=image;verticalLabelPosition=bottom;labelBackgroundColor=#ffffff;verticalAlign=top;aspect=fixed;imageAspect=0;image=data:image/svg+xml,PHN2ZyB4bWxuczpjYz0iaHR0cDovL2NyZWF0aXZlY29tbW9ucy5vcmcvbnMjIiB4bWxuczpkYz0iaHR0cDovL3B1cmwub3JnL2RjL2VsZW1lbnRzLzEuMS8iIHhtbG5zOmlua3NjYXBlPSJodHRwOi8vd3d3Lmlua3NjYXBlLm9yZy9uYW1lc3BhY2VzL2lua3NjYXBlIiB4bWxuczpyZGY9Imh0dHA6Ly93d3cudzMub3JnLzE5OTkvMDIvMjItcmRmLXN5bnRheC1ucyMiIHhtbG5zOnNvZGlwb2RpPSJodHRwOi8vc29kaXBvZGkuc291cmNlZm9yZ2UubmV0L0RURC9zb2RpcG9kaS0wLmR0ZCIgeG1sbnM6c3ZnPSJodHRwOi8vd3d3LnczLm9yZy8yMDAwL3N2ZyIgeG1sbnM9Imh0dHA6Ly93d3cudzMub3JnLzIwMDAvc3ZnIiB4bWxuczp4bGluaz0iaHR0cDovL3d3dy53My5vcmcvMTk5OS94bGluayIgdmVyc2lvbj0iMS4xIiBpZD0ic3ZnODU1MTkiIGlua3NjYXBlOnZlcnNpb249IjAuOTIuMyAoMjQwNTU0NiwgMjAxOC0wMy0xMSkiIHNvZGlwb2RpOmRvY25hbWU9Imh0dHAuc3ZnIiB4PSIwcHgiIHk9IjBweCIgdmlld0JveD0iMCAwIDQ4IDQ4IiBzdHlsZT0iZW5hYmxlLWJhY2tncm91bmQ6bmV3IDAgMCA0OCA0ODsiIHhtbDpzcGFjZT0icHJlc2VydmUiPiYjeGE7PHNvZGlwb2RpOm5hbWVkdmlldyBib3JkZXJjb2xvcj0iIzY2NjY2NiIgYm9yZGVyb3BhY2l0eT0iMSIgZml0LW1hcmdpbi1ib3R0b209IjAiIGZpdC1tYXJnaW4tbGVmdD0iMCIgZml0LW1hcmdpbi1yaWdodD0iMCIgZml0LW1hcmdpbi10b3A9IjAiIGdyaWR0b2xlcmFuY2U9IjEwIiBndWlkZXRvbGVyYW5jZT0iMTAiIGlkPSJuYW1lZHZpZXc4NTUyMSIgaW5rc2NhcGU6Y3VycmVudC1sYXllcj0ic3ZnODU1MTkiIGlua3NjYXBlOmN4PSIzMi4xMzUwMjQiIGlua3NjYXBlOmN5PSIzMi4wMDA3NjkiIGlua3NjYXBlOnBhZ2VvcGFjaXR5PSIwIiBpbmtzY2FwZTpwYWdlc2hhZG93PSIyIiBpbmtzY2FwZTp3aW5kb3ctaGVpZ2h0PSIxMDE3IiBpbmtzY2FwZTp3aW5kb3ctbWF4aW1pemVkPSIxIiBpbmtzY2FwZTp3aW5kb3ctd2lkdGg9IjE5MjAiIGlua3NjYXBlOndpbmRvdy14PSItOCIgaW5rc2NhcGU6d2luZG93LXk9Ii04IiBpbmtzY2FwZTp6b29tPSIxMy4xMzYzNjQiIG9iamVjdHRvbGVyYW5jZT0iMTAiIHBhZ2Vjb2xvcj0iI2ZmZmZmZiIgc2hvd2dyaWQ9ImZhbHNlIj4mI3hhOwk8L3NvZGlwb2RpOm5hbWVkdmlldz4mI3hhOzxnIGlkPSJnODU1MTciIHRyYW5zZm9ybT0idHJhbnNsYXRlKC0wLjc5NSwtMC43NSkiPiYjeGE7CTx0aXRsZSBpZD0idGl0bGU4NTQ0MCI+UGFnZS0xPC90aXRsZT4mI3hhOwk8ZyBpZD0iZ3JvdXA1MjQ5LTEiIHRyYW5zZm9ybT0idHJhbnNsYXRlKDAuNzk1LC0wLjc1KSI+JiN4YTsJCTx0aXRsZSBpZD0idGl0bGU4NTQ0MiI+SFRUUDwvdGl0bGU+JiN4YTsJCTxnIGlkPSJzaGFwZTUyNTAtMiI+JiN4YTsJCQk8dGl0bGUgaWQ9InRpdGxlODU0NDQiPmNpcmNsZTE1MDU1PC90aXRsZT4mI3hhOwkJCTxjaXJjbGUgaWQ9ImVsbGlwc2U4NTQ0NiIgc3R5bGU9ImZpbGw6I0ZGRkZGRjsiIGN4PSIyNCIgY3k9IjI1LjUiIHI9IjI0Ii8+JiN4YTsJCTwvZz4mI3hhOwkJPGcgaWQ9InNoYXBlNTI1MS00IiB0cmFuc2Zvcm09InRyYW5zbGF0ZSgxLjQ5NzE5LC0xLjMxMjUpIj4mI3hhOwkJCTx0aXRsZSBpZD0idGl0bGU4NTQ0OSI+cGF0aDE1MDU3PC90aXRsZT4mI3hhOwkJCTxwYXRoIGlkPSJwYXRoODU0NTEiIGlua3NjYXBlOmNvbm5lY3Rvci1jdXJ2YXR1cmU9IjAiIHN0eWxlPSJmaWxsOiNGRkZGRkY7IiBkPSJNNDUuMzgsMjYuNjNjMCwwLjA2LDAsMC4xMiwwLDAuMTggICAgIGMwLDEyLjUzLTEwLjE2LDIyLjY5LTIyLjY5LDIyLjY5UzAsMzkuMzQsMCwyNi44MWMwLTAuMDYsMC0wLjEyLDAtMC4xOEMwLDE0LjEsMTAuMTYsMy45NCwyMi42OSwzLjk0UzQ1LjM4LDE0LjEsNDUuMzgsMjYuNjN6Ii8+JiN4YTsJCTwvZz4mI3hhOwkJPGcgaWQ9InNoYXBlNTI1Mi02IiB0cmFuc2Zvcm09InRyYW5zbGF0ZSg0LjE2MjUsLTM1LjI1KSI+JiN4YTsJCQk8dGl0bGUgaWQ9InRpdGxlODU0NTQiPnBhdGgxNTA1OTwvdGl0bGU+JiN4YTsJCQk8cGF0aCBpZD0icGF0aDg1NDU2IiBpbmtzY2FwZTpjb25uZWN0b3ItY3VydmF0dXJlPSIwIiBzdHlsZT0iZmlsbDpub25lOyIgZD0iTTAsNDcuN2MzLjI1LDEuMDUsMTAuODQsMS44LDE5Ljc1LDEuOCAgICAgYzguNjUsMCwxNi4xMS0wLjcsMTkuNS0xLjcyTDAsNDcuN3oiLz4mI3hhOwkJCSYjeGE7CQkJCTxwYXRoIGlkPSJwYXRoODU0NTgiIGlua3NjYXBlOmNvbm5lY3Rvci1jdXJ2YXR1cmU9IjAiIHN0eWxlPSJmaWxsOm5vbmU7c3Ryb2tlOiNEM0QzRDM7c3Ryb2tlLXdpZHRoOjEuNTtzdHJva2UtbWl0ZXJsaW1pdDozOyIgZD0iICAgICBNMCw0Ny43YzMuMjUsMS4wNSwxMC44NCwxLjgsMTkuNzUsMS44YzguNjUsMCwxNi4xMS0wLjcsMTkuNS0xLjcyIi8+JiN4YTsJCTwvZz4mI3hhOwkJPGcgaWQ9InNoYXBlNTI1My05IiB0cmFuc2Zvcm09InRyYW5zbGF0ZSgxMy40NCwtMjIuNzcpIj4mI3hhOwkJCTx0aXRsZSBpZD0idGl0bGU4NTQ2MSI+cGF0aDE1MDYxPC90aXRsZT4mI3hhOwkJCTxwYXRoIGlkPSJwYXRoODU0NjMiIGlua3NjYXBlOmNvbm5lY3Rvci1jdXJ2YXR1cmU9IjAiIHN0eWxlPSJmaWxsOiNEM0QzRDM7IiBkPSJNMTAuNTYsMjYuMjVjNC4yMSwwLDguODgsOC45LDkuMDUsMjEuNzVIMS41MSAgICAgQzEuNjgsMzUuMTUsNi4zNiwyNi4yNSwxMC41NiwyNi4yNXogTTEwLjU2LDI0Ljc1QzQuNzIsMjQuNzUsMCwzNS41LDAsNDguNzVjMCwwLjI2LDAsMC41LDAsMC43NWgyMS4xMWMwLTAuMjUsMC0wLjQ5LDAtMC43NSAgICAgYzAtMTMuMjUtNC43Mi0yNC0xMC41Ni0yNEgxMC41NnoiLz4mI3hhOwkJPC9nPiYjeGE7CQk8ZyBpZD0ic2hhcGU1MjU0LTExIiB0cmFuc2Zvcm09InRyYW5zbGF0ZSgxLjEzMjUsLTEuMTI1KSI+JiN4YTsJCQk8dGl0bGUgaWQ9InRpdGxlODU0NjYiPnBhdGgxNTA2MzwvdGl0bGU+JiN4YTsJCQk8cGF0aCBpZD0icGF0aDg1NDY4IiBpbmtzY2FwZTpjb25uZWN0b3ItY3VydmF0dXJlPSIwIiBzdHlsZT0iZmlsbDojNTVEMkY2OyIgZD0iTTIzLjA1LDQ5LjVDMTAuNCw0OS40NywwLjEzLDM5LjI3LDAsMjYuNjMgICAgIHYtMC4zOGg0Ni4xMnYwLjM4QzQ1Ljk5LDM5LjI4LDM1LjcsNDkuNDgsMjMuMDUsNDkuNXoiLz4mI3hhOwkJPC9nPiYjeGE7CQk8ZyBpZD0ic2hhcGU1MjU1LTEzIiB0cmFuc2Zvcm09InRyYW5zbGF0ZSgxLjUsLTcuMDI5NDQpIj4mI3hhOwkJCTx0aXRsZSBpZD0idGl0bGU4NTQ3MSI+cGF0aDE1MDY1PC90aXRsZT4mI3hhOwkJCTxwYXRoIGlkPSJwYXRoODU0NzMiIGlua3NjYXBlOmNvbm5lY3Rvci1jdXJ2YXR1cmU9IjAiIHN0eWxlPSJmaWxsOiM1NTZBOEE7IiBkPSJNMjIuNSwxMC4wM2MxMi40MywwLDIyLjUsMTAuMDcsMjIuNSwyMi41ICAgICBzLTEwLjA3LDIyLjUtMjIuNSwyMi41UzAsNDQuOTYsMCwzMi41M2wwLDBDMCwyMC4xLDEwLjA3LDEwLjAzLDIyLjUsMTAuMDN6IE0yMi41LDguNTNjLTEzLjI1LDAtMjQsMTAuNzUtMjQsMjRzMTAuNzUsMjQsMjQsMjQgICAgIHMyNC0xMC43NSwyNC0yNGwwLDBDNDYuNSwxOS4yOCwzNS43NSw4LjUzLDIyLjUsOC41M3oiLz4mI3hhOwkJPC9nPiYjeGE7CQk8ZyBpZD0ic2hhcGU1MjU2LTE1IiB0cmFuc2Zvcm09InRyYW5zbGF0ZSg0LjE2MjUsLTExLjc2KSI+JiN4YTsJCQk8dGl0bGUgaWQ9InRpdGxlODU0NzYiPnBhdGgxNTA2NzwvdGl0bGU+JiN4YTsJCQk8cGF0aCBpZD0icGF0aDg1NDc4IiBpbmtzY2FwZTpjb25uZWN0b3ItY3VydmF0dXJlPSIwIiBzdHlsZT0iZmlsbDpub25lOyIgZD0iTTAsNDkuNWMzLjI1LTEuMDYsMTAuODctMS44LDE5Ljc1LTEuOCAgICAgYzguNjUsMCwxNi4xMSwwLjcxLDE5LjUsMS43M0wwLDQ5LjV6Ii8+JiN4YTsJCQkmI3hhOwkJCQk8cGF0aCBpZD0icGF0aDg1NDgwIiBpbmtzY2FwZTpjb25uZWN0b3ItY3VydmF0dXJlPSIwIiBzdHlsZT0iZmlsbDpub25lO3N0cm9rZTojNTU2QThBO3N0cm9rZS13aWR0aDoxLjU7c3Ryb2tlLW1pdGVybGltaXQ6MzsiIGQ9IiAgICAgTTAsNDkuNWMzLjI1LTEuMDYsMTAuODctMS44LDE5Ljc1LTEuOGM4LjY1LDAsMTYuMTEsMC43MSwxOS41LDEuNzMiLz4mI3hhOwkJPC9nPiYjeGE7CQk8ZyBpZD0ic2hhcGU1MjU3LTE4IiB0cmFuc2Zvcm09InRyYW5zbGF0ZSgwLjcwNSwtMjQpIj4mI3hhOwkJCTx0aXRsZSBpZD0idGl0bGU4NTQ4MyI+bGluZTE1MDY5PC90aXRsZT4mI3hhOwkJCSYjeGE7CQkJCTxwYXRoIGlkPSJwYXRoODU0ODUiIGlua3NjYXBlOmNvbm5lY3Rvci1jdXJ2YXR1cmU9IjAiIHN0eWxlPSJmaWxsOm5vbmU7c3Ryb2tlOiM1NTZBOEE7c3Ryb2tlLXdpZHRoOjEuNTtzdHJva2UtbWl0ZXJsaW1pdDozOyIgZD0iICAgICBNMCw0OS41aDQ2Ljc5Ii8+JiN4YTsJCTwvZz4mI3hhOwkJPGcgaWQ9Imdyb3VwNTI1OC0yMSIgdHJhbnNmb3JtPSJ0cmFuc2xhdGUoOC42Nzc1LC0yNi43NTI1KSI+JiN4YTsJCQk8dGl0bGUgaWQ9InRpdGxlODU0ODgiPmcxNTA3OTwvdGl0bGU+JiN4YTsJCQk8ZyBpZD0ic2hhcGU1MjU5LTIyIj4mI3hhOwkJCQk8dGl0bGUgaWQ9InRpdGxlODU0OTAiPnBhdGgxNTA3MTwvdGl0bGU+JiN4YTsJCQkJPHBhdGggaWQ9InBhdGg4NTQ5MiIgaW5rc2NhcGU6Y29ubmVjdG9yLWN1cnZhdHVyZT0iMCIgc3R5bGU9ImZpbGw6IzU1NkE4QTsiIGQ9Ik03LjU5LDQ5LjQ5SDYuMDFWNDUuNEgxLjU3djQuMUgwdi05LjQ2aDEuNTcgICAgICBWNDRoNC40NHYtMy45N2gxLjU4VjQ5LjQ5eiIvPiYjeGE7CQkJPC9nPiYjeGE7CQkJPGcgaWQ9InNoYXBlNTI2MC0yNCIgdHJhbnNmb3JtPSJ0cmFuc2xhdGUoOSwtMC4wMDc1KSI+JiN4YTsJCQkJPHRpdGxlIGlkPSJ0aXRsZTg1NDk1Ij5wYXRoMTUwNzM8L3RpdGxlPiYjeGE7CQkJCTxwYXRoIGlkPSJwYXRoODU0OTciIGlua3NjYXBlOmNvbm5lY3Rvci1jdXJ2YXR1cmU9IjAiIHN0eWxlPSJmaWxsOiM1NTZBOEE7IiBkPSJNNi45OSw0MS4zOUg0LjI3djguMTFIMi43MXYtOC4xMUgwdi0xLjM0aDcgICAgICBMNi45OSw0MS4zOXoiLz4mI3hhOwkJCTwvZz4mI3hhOwkJCTxnIGlkPSJzaGFwZTUyNjEtMjYiIHRyYW5zZm9ybT0idHJhbnNsYXRlKDE2LjcxLC0wLjAwNzUpIj4mI3hhOwkJCQk8dGl0bGUgaWQ9InRpdGxlODU1MDAiPnBhdGgxNTA3NTwvdGl0bGU+JiN4YTsJCQkJPHBhdGggaWQ9InBhdGg4NTUwMiIgaW5rc2NhcGU6Y29ubmVjdG9yLWN1cnZhdHVyZT0iMCIgc3R5bGU9ImZpbGw6IzU1NkE4QTsiIGQ9Ik02Ljk5LDQxLjM5SDQuMjd2OC4xMUgyLjcxdi04LjExSDB2LTEuMzRoNyAgICAgIEw2Ljk5LDQxLjM5eiIvPiYjeGE7CQkJPC9nPiYjeGE7CQkJPGcgaWQ9InNoYXBlNTI2Mi0yOCIgdHJhbnNmb3JtPSJ0cmFuc2xhdGUoMjUuMDcyNSwtMC4wMDc1KSI+JiN4YTsJCQkJPHRpdGxlIGlkPSJ0aXRsZTg1NTA1Ij5wYXRoMTUwNzc8L3RpdGxlPiYjeGE7CQkJCTxwYXRoIGlkPSJwYXRoODU1MDciIGlua3NjYXBlOmNvbm5lY3Rvci1jdXJ2YXR1cmU9IjAiIHN0eWxlPSJmaWxsOiM1NTZBOEE7IiBkPSJNMS41Nyw0Ni4wN3YzLjQzSDB2LTkuNDVoMi44NiAgICAgIGMwLjkxLTAuMDYsMS44LDAuMjEsMi41MywwLjc1YzAuNjEsMC41NCwwLjk1LDEuMzMsMC45LDIuMTRjMC4wMywwLjg1LTAuMzIsMS42Ny0wLjk0LDIuMjVjLTAuNjksMC42MS0xLjYsMC45My0yLjUyLDAuODhIMS41NyAgICAgIHogTTEuNTcsNDEuMzR2My40MmgxLjAyYzAuNTQsMC4wMywxLjA3LTAuMTMsMS41LTAuNDZjMC4zNi0wLjM0LDAuNTUtMC44MiwwLjUyLTEuMzJjMC0xLjExLTAuNjQtMS42Ny0xLjkzLTEuNjdMMS41Nyw0MS4zNHoiLz4mI3hhOwkJCTwvZz4mI3hhOwkJPC9nPiYjeGE7CQk8ZyBpZD0ic2hhcGU1MjYzLTMwIiB0cmFuc2Zvcm09InRyYW5zbGF0ZSgxMy40NDc1KSI+JiN4YTsJCQk8dGl0bGUgaWQ9InRpdGxlODU1MTEiPnBhdGgxNTA4MTwvdGl0bGU+JiN4YTsJCQk8cGF0aCBpZD0icGF0aDg1NTEzIiBpbmtzY2FwZTpjb25uZWN0b3ItY3VydmF0dXJlPSIwIiBzdHlsZT0iZmlsbDojNTU2QThBOyIgZD0iTTE5LjYsMjYuMjVDMTkuNDMsMzkuMTEsMTQuNzYsNDgsMTAuNTUsNDggICAgIFMxLjY3LDM5LjExLDEuNSwyNi4yNUgxOS42eiBNMjEuMSwyNC43NUgwYzAsMC4yNSwwLDAuNSwwLDAuNzVjMCwxMy4yNSw0LjcyLDI0LDEwLjU2LDI0YzUuODMsMCwxMC41NS0xMC43NSwxMC41NS0yNCAgICAgYzAtMC4yNSwwLTAuNSwwLTAuNzVIMjEuMXoiLz4mI3hhOwkJPC9nPiYjeGE7CTwvZz4mI3hhOzwvZz4mI3hhOzwvc3ZnPg==;" vertex="1" parent="1">
          <mxGeometry x="170" y="208" width="48" height="48" as="geometry" />
        </mxCell>
        <mxCell id="feeIY1tUaP1cyDwpqvwu-12" style="edgeStyle=orthogonalEdgeStyle;rounded=0;orthogonalLoop=1;jettySize=auto;html=1;entryX=0;entryY=0.5;entryDx=0;entryDy=0;" edge="1" parent="1" source="feeIY1tUaP1cyDwpqvwu-4" target="feeIY1tUaP1cyDwpqvwu-1">
          <mxGeometry relative="1" as="geometry" />
        </mxCell>
        <mxCell id="feeIY1tUaP1cyDwpqvwu-4" value="PRIME" style="shape=image;verticalLabelPosition=bottom;labelBackgroundColor=#ffffff;verticalAlign=top;aspect=fixed;imageAspect=0;image=data:image/svg+xml,PHN2ZyB4bWxuczpjYz0iaHR0cDovL2NyZWF0aXZlY29tbW9ucy5vcmcvbnMjIiB4bWxuczpkYz0iaHR0cDovL3B1cmwub3JnL2RjL2VsZW1lbnRzLzEuMS8iIHhtbG5zOmlua3NjYXBlPSJodHRwOi8vd3d3Lmlua3NjYXBlLm9yZy9uYW1lc3BhY2VzL2lua3NjYXBlIiB4bWxuczpyZGY9Imh0dHA6Ly93d3cudzMub3JnLzE5OTkvMDIvMjItcmRmLXN5bnRheC1ucyMiIHhtbG5zOnNvZGlwb2RpPSJodHRwOi8vc29kaXBvZGkuc291cmNlZm9yZ2UubmV0L0RURC9zb2RpcG9kaS0wLmR0ZCIgeG1sbnM6c3ZnPSJodHRwOi8vd3d3LnczLm9yZy8yMDAwL3N2ZyIgeG1sbnM9Imh0dHA6Ly93d3cudzMub3JnLzIwMDAvc3ZnIiB4bWxuczp4bGluaz0iaHR0cDovL3d3dy53My5vcmcvMTk5OS94bGluayIgdmVyc2lvbj0iMS4xIiBpZD0ic3ZnODU1MTkiIGlua3NjYXBlOnZlcnNpb249IjAuOTIuMyAoMjQwNTU0NiwgMjAxOC0wMy0xMSkiIHNvZGlwb2RpOmRvY25hbWU9Imh0dHAuc3ZnIiB4PSIwcHgiIHk9IjBweCIgdmlld0JveD0iMCAwIDQ4IDQ4IiBzdHlsZT0iZW5hYmxlLWJhY2tncm91bmQ6bmV3IDAgMCA0OCA0ODsiIHhtbDpzcGFjZT0icHJlc2VydmUiPiYjeGE7PHNvZGlwb2RpOm5hbWVkdmlldyBib3JkZXJjb2xvcj0iIzY2NjY2NiIgYm9yZGVyb3BhY2l0eT0iMSIgZml0LW1hcmdpbi1ib3R0b209IjAiIGZpdC1tYXJnaW4tbGVmdD0iMCIgZml0LW1hcmdpbi1yaWdodD0iMCIgZml0LW1hcmdpbi10b3A9IjAiIGdyaWR0b2xlcmFuY2U9IjEwIiBndWlkZXRvbGVyYW5jZT0iMTAiIGlkPSJuYW1lZHZpZXc4NTUyMSIgaW5rc2NhcGU6Y3VycmVudC1sYXllcj0ic3ZnODU1MTkiIGlua3NjYXBlOmN4PSIzMi4xMzUwMjQiIGlua3NjYXBlOmN5PSIzMi4wMDA3NjkiIGlua3NjYXBlOnBhZ2VvcGFjaXR5PSIwIiBpbmtzY2FwZTpwYWdlc2hhZG93PSIyIiBpbmtzY2FwZTp3aW5kb3ctaGVpZ2h0PSIxMDE3IiBpbmtzY2FwZTp3aW5kb3ctbWF4aW1pemVkPSIxIiBpbmtzY2FwZTp3aW5kb3ctd2lkdGg9IjE5MjAiIGlua3NjYXBlOndpbmRvdy14PSItOCIgaW5rc2NhcGU6d2luZG93LXk9Ii04IiBpbmtzY2FwZTp6b29tPSIxMy4xMzYzNjQiIG9iamVjdHRvbGVyYW5jZT0iMTAiIHBhZ2Vjb2xvcj0iI2ZmZmZmZiIgc2hvd2dyaWQ9ImZhbHNlIj4mI3hhOwk8L3NvZGlwb2RpOm5hbWVkdmlldz4mI3hhOzxnIGlkPSJnODU1MTciIHRyYW5zZm9ybT0idHJhbnNsYXRlKC0wLjc5NSwtMC43NSkiPiYjeGE7CTx0aXRsZSBpZD0idGl0bGU4NTQ0MCI+UGFnZS0xPC90aXRsZT4mI3hhOwk8ZyBpZD0iZ3JvdXA1MjQ5LTEiIHRyYW5zZm9ybT0idHJhbnNsYXRlKDAuNzk1LC0wLjc1KSI+JiN4YTsJCTx0aXRsZSBpZD0idGl0bGU4NTQ0MiI+SFRUUDwvdGl0bGU+JiN4YTsJCTxnIGlkPSJzaGFwZTUyNTAtMiI+JiN4YTsJCQk8dGl0bGUgaWQ9InRpdGxlODU0NDQiPmNpcmNsZTE1MDU1PC90aXRsZT4mI3hhOwkJCTxjaXJjbGUgaWQ9ImVsbGlwc2U4NTQ0NiIgc3R5bGU9ImZpbGw6I0ZGRkZGRjsiIGN4PSIyNCIgY3k9IjI1LjUiIHI9IjI0Ii8+JiN4YTsJCTwvZz4mI3hhOwkJPGcgaWQ9InNoYXBlNTI1MS00IiB0cmFuc2Zvcm09InRyYW5zbGF0ZSgxLjQ5NzE5LC0xLjMxMjUpIj4mI3hhOwkJCTx0aXRsZSBpZD0idGl0bGU4NTQ0OSI+cGF0aDE1MDU3PC90aXRsZT4mI3hhOwkJCTxwYXRoIGlkPSJwYXRoODU0NTEiIGlua3NjYXBlOmNvbm5lY3Rvci1jdXJ2YXR1cmU9IjAiIHN0eWxlPSJmaWxsOiNGRkZGRkY7IiBkPSJNNDUuMzgsMjYuNjNjMCwwLjA2LDAsMC4xMiwwLDAuMTggICAgIGMwLDEyLjUzLTEwLjE2LDIyLjY5LTIyLjY5LDIyLjY5UzAsMzkuMzQsMCwyNi44MWMwLTAuMDYsMC0wLjEyLDAtMC4xOEMwLDE0LjEsMTAuMTYsMy45NCwyMi42OSwzLjk0UzQ1LjM4LDE0LjEsNDUuMzgsMjYuNjN6Ii8+JiN4YTsJCTwvZz4mI3hhOwkJPGcgaWQ9InNoYXBlNTI1Mi02IiB0cmFuc2Zvcm09InRyYW5zbGF0ZSg0LjE2MjUsLTM1LjI1KSI+JiN4YTsJCQk8dGl0bGUgaWQ9InRpdGxlODU0NTQiPnBhdGgxNTA1OTwvdGl0bGU+JiN4YTsJCQk8cGF0aCBpZD0icGF0aDg1NDU2IiBpbmtzY2FwZTpjb25uZWN0b3ItY3VydmF0dXJlPSIwIiBzdHlsZT0iZmlsbDpub25lOyIgZD0iTTAsNDcuN2MzLjI1LDEuMDUsMTAuODQsMS44LDE5Ljc1LDEuOCAgICAgYzguNjUsMCwxNi4xMS0wLjcsMTkuNS0xLjcyTDAsNDcuN3oiLz4mI3hhOwkJCSYjeGE7CQkJCTxwYXRoIGlkPSJwYXRoODU0NTgiIGlua3NjYXBlOmNvbm5lY3Rvci1jdXJ2YXR1cmU9IjAiIHN0eWxlPSJmaWxsOm5vbmU7c3Ryb2tlOiNEM0QzRDM7c3Ryb2tlLXdpZHRoOjEuNTtzdHJva2UtbWl0ZXJsaW1pdDozOyIgZD0iICAgICBNMCw0Ny43YzMuMjUsMS4wNSwxMC44NCwxLjgsMTkuNzUsMS44YzguNjUsMCwxNi4xMS0wLjcsMTkuNS0xLjcyIi8+JiN4YTsJCTwvZz4mI3hhOwkJPGcgaWQ9InNoYXBlNTI1My05IiB0cmFuc2Zvcm09InRyYW5zbGF0ZSgxMy40NCwtMjIuNzcpIj4mI3hhOwkJCTx0aXRsZSBpZD0idGl0bGU4NTQ2MSI+cGF0aDE1MDYxPC90aXRsZT4mI3hhOwkJCTxwYXRoIGlkPSJwYXRoODU0NjMiIGlua3NjYXBlOmNvbm5lY3Rvci1jdXJ2YXR1cmU9IjAiIHN0eWxlPSJmaWxsOiNEM0QzRDM7IiBkPSJNMTAuNTYsMjYuMjVjNC4yMSwwLDguODgsOC45LDkuMDUsMjEuNzVIMS41MSAgICAgQzEuNjgsMzUuMTUsNi4zNiwyNi4yNSwxMC41NiwyNi4yNXogTTEwLjU2LDI0Ljc1QzQuNzIsMjQuNzUsMCwzNS41LDAsNDguNzVjMCwwLjI2LDAsMC41LDAsMC43NWgyMS4xMWMwLTAuMjUsMC0wLjQ5LDAtMC43NSAgICAgYzAtMTMuMjUtNC43Mi0yNC0xMC41Ni0yNEgxMC41NnoiLz4mI3hhOwkJPC9nPiYjeGE7CQk8ZyBpZD0ic2hhcGU1MjU0LTExIiB0cmFuc2Zvcm09InRyYW5zbGF0ZSgxLjEzMjUsLTEuMTI1KSI+JiN4YTsJCQk8dGl0bGUgaWQ9InRpdGxlODU0NjYiPnBhdGgxNTA2MzwvdGl0bGU+JiN4YTsJCQk8cGF0aCBpZD0icGF0aDg1NDY4IiBpbmtzY2FwZTpjb25uZWN0b3ItY3VydmF0dXJlPSIwIiBzdHlsZT0iZmlsbDojNTVEMkY2OyIgZD0iTTIzLjA1LDQ5LjVDMTAuNCw0OS40NywwLjEzLDM5LjI3LDAsMjYuNjMgICAgIHYtMC4zOGg0Ni4xMnYwLjM4QzQ1Ljk5LDM5LjI4LDM1LjcsNDkuNDgsMjMuMDUsNDkuNXoiLz4mI3hhOwkJPC9nPiYjeGE7CQk8ZyBpZD0ic2hhcGU1MjU1LTEzIiB0cmFuc2Zvcm09InRyYW5zbGF0ZSgxLjUsLTcuMDI5NDQpIj4mI3hhOwkJCTx0aXRsZSBpZD0idGl0bGU4NTQ3MSI+cGF0aDE1MDY1PC90aXRsZT4mI3hhOwkJCTxwYXRoIGlkPSJwYXRoODU0NzMiIGlua3NjYXBlOmNvbm5lY3Rvci1jdXJ2YXR1cmU9IjAiIHN0eWxlPSJmaWxsOiM1NTZBOEE7IiBkPSJNMjIuNSwxMC4wM2MxMi40MywwLDIyLjUsMTAuMDcsMjIuNSwyMi41ICAgICBzLTEwLjA3LDIyLjUtMjIuNSwyMi41UzAsNDQuOTYsMCwzMi41M2wwLDBDMCwyMC4xLDEwLjA3LDEwLjAzLDIyLjUsMTAuMDN6IE0yMi41LDguNTNjLTEzLjI1LDAtMjQsMTAuNzUtMjQsMjRzMTAuNzUsMjQsMjQsMjQgICAgIHMyNC0xMC43NSwyNC0yNGwwLDBDNDYuNSwxOS4yOCwzNS43NSw4LjUzLDIyLjUsOC41M3oiLz4mI3hhOwkJPC9nPiYjeGE7CQk8ZyBpZD0ic2hhcGU1MjU2LTE1IiB0cmFuc2Zvcm09InRyYW5zbGF0ZSg0LjE2MjUsLTExLjc2KSI+JiN4YTsJCQk8dGl0bGUgaWQ9InRpdGxlODU0NzYiPnBhdGgxNTA2NzwvdGl0bGU+JiN4YTsJCQk8cGF0aCBpZD0icGF0aDg1NDc4IiBpbmtzY2FwZTpjb25uZWN0b3ItY3VydmF0dXJlPSIwIiBzdHlsZT0iZmlsbDpub25lOyIgZD0iTTAsNDkuNWMzLjI1LTEuMDYsMTAuODctMS44LDE5Ljc1LTEuOCAgICAgYzguNjUsMCwxNi4xMSwwLjcxLDE5LjUsMS43M0wwLDQ5LjV6Ii8+JiN4YTsJCQkmI3hhOwkJCQk8cGF0aCBpZD0icGF0aDg1NDgwIiBpbmtzY2FwZTpjb25uZWN0b3ItY3VydmF0dXJlPSIwIiBzdHlsZT0iZmlsbDpub25lO3N0cm9rZTojNTU2QThBO3N0cm9rZS13aWR0aDoxLjU7c3Ryb2tlLW1pdGVybGltaXQ6MzsiIGQ9IiAgICAgTTAsNDkuNWMzLjI1LTEuMDYsMTAuODctMS44LDE5Ljc1LTEuOGM4LjY1LDAsMTYuMTEsMC43MSwxOS41LDEuNzMiLz4mI3hhOwkJPC9nPiYjeGE7CQk8ZyBpZD0ic2hhcGU1MjU3LTE4IiB0cmFuc2Zvcm09InRyYW5zbGF0ZSgwLjcwNSwtMjQpIj4mI3hhOwkJCTx0aXRsZSBpZD0idGl0bGU4NTQ4MyI+bGluZTE1MDY5PC90aXRsZT4mI3hhOwkJCSYjeGE7CQkJCTxwYXRoIGlkPSJwYXRoODU0ODUiIGlua3NjYXBlOmNvbm5lY3Rvci1jdXJ2YXR1cmU9IjAiIHN0eWxlPSJmaWxsOm5vbmU7c3Ryb2tlOiM1NTZBOEE7c3Ryb2tlLXdpZHRoOjEuNTtzdHJva2UtbWl0ZXJsaW1pdDozOyIgZD0iICAgICBNMCw0OS41aDQ2Ljc5Ii8+JiN4YTsJCTwvZz4mI3hhOwkJPGcgaWQ9Imdyb3VwNTI1OC0yMSIgdHJhbnNmb3JtPSJ0cmFuc2xhdGUoOC42Nzc1LC0yNi43NTI1KSI+JiN4YTsJCQk8dGl0bGUgaWQ9InRpdGxlODU0ODgiPmcxNTA3OTwvdGl0bGU+JiN4YTsJCQk8ZyBpZD0ic2hhcGU1MjU5LTIyIj4mI3hhOwkJCQk8dGl0bGUgaWQ9InRpdGxlODU0OTAiPnBhdGgxNTA3MTwvdGl0bGU+JiN4YTsJCQkJPHBhdGggaWQ9InBhdGg4NTQ5MiIgaW5rc2NhcGU6Y29ubmVjdG9yLWN1cnZhdHVyZT0iMCIgc3R5bGU9ImZpbGw6IzU1NkE4QTsiIGQ9Ik03LjU5LDQ5LjQ5SDYuMDFWNDUuNEgxLjU3djQuMUgwdi05LjQ2aDEuNTcgICAgICBWNDRoNC40NHYtMy45N2gxLjU4VjQ5LjQ5eiIvPiYjeGE7CQkJPC9nPiYjeGE7CQkJPGcgaWQ9InNoYXBlNTI2MC0yNCIgdHJhbnNmb3JtPSJ0cmFuc2xhdGUoOSwtMC4wMDc1KSI+JiN4YTsJCQkJPHRpdGxlIGlkPSJ0aXRsZTg1NDk1Ij5wYXRoMTUwNzM8L3RpdGxlPiYjeGE7CQkJCTxwYXRoIGlkPSJwYXRoODU0OTciIGlua3NjYXBlOmNvbm5lY3Rvci1jdXJ2YXR1cmU9IjAiIHN0eWxlPSJmaWxsOiM1NTZBOEE7IiBkPSJNNi45OSw0MS4zOUg0LjI3djguMTFIMi43MXYtOC4xMUgwdi0xLjM0aDcgICAgICBMNi45OSw0MS4zOXoiLz4mI3hhOwkJCTwvZz4mI3hhOwkJCTxnIGlkPSJzaGFwZTUyNjEtMjYiIHRyYW5zZm9ybT0idHJhbnNsYXRlKDE2LjcxLC0wLjAwNzUpIj4mI3hhOwkJCQk8dGl0bGUgaWQ9InRpdGxlODU1MDAiPnBhdGgxNTA3NTwvdGl0bGU+JiN4YTsJCQkJPHBhdGggaWQ9InBhdGg4NTUwMiIgaW5rc2NhcGU6Y29ubmVjdG9yLWN1cnZhdHVyZT0iMCIgc3R5bGU9ImZpbGw6IzU1NkE4QTsiIGQ9Ik02Ljk5LDQxLjM5SDQuMjd2OC4xMUgyLjcxdi04LjExSDB2LTEuMzRoNyAgICAgIEw2Ljk5LDQxLjM5eiIvPiYjeGE7CQkJPC9nPiYjeGE7CQkJPGcgaWQ9InNoYXBlNTI2Mi0yOCIgdHJhbnNmb3JtPSJ0cmFuc2xhdGUoMjUuMDcyNSwtMC4wMDc1KSI+JiN4YTsJCQkJPHRpdGxlIGlkPSJ0aXRsZTg1NTA1Ij5wYXRoMTUwNzc8L3RpdGxlPiYjeGE7CQkJCTxwYXRoIGlkPSJwYXRoODU1MDciIGlua3NjYXBlOmNvbm5lY3Rvci1jdXJ2YXR1cmU9IjAiIHN0eWxlPSJmaWxsOiM1NTZBOEE7IiBkPSJNMS41Nyw0Ni4wN3YzLjQzSDB2LTkuNDVoMi44NiAgICAgIGMwLjkxLTAuMDYsMS44LDAuMjEsMi41MywwLjc1YzAuNjEsMC41NCwwLjk1LDEuMzMsMC45LDIuMTRjMC4wMywwLjg1LTAuMzIsMS42Ny0wLjk0LDIuMjVjLTAuNjksMC42MS0xLjYsMC45My0yLjUyLDAuODhIMS41NyAgICAgIHogTTEuNTcsNDEuMzR2My40MmgxLjAyYzAuNTQsMC4wMywxLjA3LTAuMTMsMS41LTAuNDZjMC4zNi0wLjM0LDAuNTUtMC44MiwwLjUyLTEuMzJjMC0xLjExLTAuNjQtMS42Ny0xLjkzLTEuNjdMMS41Nyw0MS4zNHoiLz4mI3hhOwkJCTwvZz4mI3hhOwkJPC9nPiYjeGE7CQk8ZyBpZD0ic2hhcGU1MjYzLTMwIiB0cmFuc2Zvcm09InRyYW5zbGF0ZSgxMy40NDc1KSI+JiN4YTsJCQk8dGl0bGUgaWQ9InRpdGxlODU1MTEiPnBhdGgxNTA4MTwvdGl0bGU+JiN4YTsJCQk8cGF0aCBpZD0icGF0aDg1NTEzIiBpbmtzY2FwZTpjb25uZWN0b3ItY3VydmF0dXJlPSIwIiBzdHlsZT0iZmlsbDojNTU2QThBOyIgZD0iTTE5LjYsMjYuMjVDMTkuNDMsMzkuMTEsMTQuNzYsNDgsMTAuNTUsNDggICAgIFMxLjY3LDM5LjExLDEuNSwyNi4yNUgxOS42eiBNMjEuMSwyNC43NUgwYzAsMC4yNSwwLDAuNSwwLDAuNzVjMCwxMy4yNSw0LjcyLDI0LDEwLjU2LDI0YzUuODMsMCwxMC41NS0xMC43NSwxMC41NS0yNCAgICAgYzAtMC4yNSwwLTAuNSwwLTAuNzVIMjEuMXoiLz4mI3hhOwkJPC9nPiYjeGE7CTwvZz4mI3hhOzwvZz4mI3hhOzwvc3ZnPg==;" vertex="1" parent="1">
          <mxGeometry x="170" y="290" width="48" height="48" as="geometry" />
        </mxCell>
        <mxCell id="feeIY1tUaP1cyDwpqvwu-7" value="USE CASE 1 FLEXOM AGRESSO" style="text;html=1;strokeColor=none;fillColor=none;align=center;verticalAlign=middle;whiteSpace=wrap;rounded=0;fontStyle=1" vertex="1" parent="1">
          <mxGeometry x="260" y="80" width="360" height="30" as="geometry" />
        </mxCell>
        <mxCell id="feeIY1tUaP1cyDwpqvwu-8" value="Agresso Instance" style="text;html=1;strokeColor=none;fillColor=none;align=center;verticalAlign=middle;whiteSpace=wrap;rounded=0;fontStyle=1" vertex="1" parent="1">
          <mxGeometry x="80" y="120" width="60" height="30" as="geometry" />
        </mxCell>
        <mxCell id="feeIY1tUaP1cyDwpqvwu-13" style="edgeStyle=orthogonalEdgeStyle;rounded=0;orthogonalLoop=1;jettySize=auto;html=1;entryX=0;entryY=0.5;entryDx=0;entryDy=0;" edge="1" parent="1" source="feeIY1tUaP1cyDwpqvwu-9" target="feeIY1tUaP1cyDwpqvwu-1">
          <mxGeometry relative="1" as="geometry" />
        </mxCell>
        <mxCell id="feeIY1tUaP1cyDwpqvwu-9" value="HRIS" style="shape=image;verticalLabelPosition=bottom;labelBackgroundColor=#ffffff;verticalAlign=top;aspect=fixed;imageAspect=0;image=data:image/svg+xml,PHN2ZyB4bWxuczpjYz0iaHR0cDovL2NyZWF0aXZlY29tbW9ucy5vcmcvbnMjIiB4bWxuczpkYz0iaHR0cDovL3B1cmwub3JnL2RjL2VsZW1lbnRzLzEuMS8iIHhtbG5zOmlua3NjYXBlPSJodHRwOi8vd3d3Lmlua3NjYXBlLm9yZy9uYW1lc3BhY2VzL2lua3NjYXBlIiB4bWxuczpyZGY9Imh0dHA6Ly93d3cudzMub3JnLzE5OTkvMDIvMjItcmRmLXN5bnRheC1ucyMiIHhtbG5zOnNvZGlwb2RpPSJodHRwOi8vc29kaXBvZGkuc291cmNlZm9yZ2UubmV0L0RURC9zb2RpcG9kaS0wLmR0ZCIgeG1sbnM6c3ZnPSJodHRwOi8vd3d3LnczLm9yZy8yMDAwL3N2ZyIgeG1sbnM9Imh0dHA6Ly93d3cudzMub3JnLzIwMDAvc3ZnIiB4bWxuczp4bGluaz0iaHR0cDovL3d3dy53My5vcmcvMTk5OS94bGluayIgdmVyc2lvbj0iMS4xIiBpZD0ic3ZnODU1MTkiIGlua3NjYXBlOnZlcnNpb249IjAuOTIuMyAoMjQwNTU0NiwgMjAxOC0wMy0xMSkiIHNvZGlwb2RpOmRvY25hbWU9Imh0dHAuc3ZnIiB4PSIwcHgiIHk9IjBweCIgdmlld0JveD0iMCAwIDQ4IDQ4IiBzdHlsZT0iZW5hYmxlLWJhY2tncm91bmQ6bmV3IDAgMCA0OCA0ODsiIHhtbDpzcGFjZT0icHJlc2VydmUiPiYjeGE7PHNvZGlwb2RpOm5hbWVkdmlldyBib3JkZXJjb2xvcj0iIzY2NjY2NiIgYm9yZGVyb3BhY2l0eT0iMSIgZml0LW1hcmdpbi1ib3R0b209IjAiIGZpdC1tYXJnaW4tbGVmdD0iMCIgZml0LW1hcmdpbi1yaWdodD0iMCIgZml0LW1hcmdpbi10b3A9IjAiIGdyaWR0b2xlcmFuY2U9IjEwIiBndWlkZXRvbGVyYW5jZT0iMTAiIGlkPSJuYW1lZHZpZXc4NTUyMSIgaW5rc2NhcGU6Y3VycmVudC1sYXllcj0ic3ZnODU1MTkiIGlua3NjYXBlOmN4PSIzMi4xMzUwMjQiIGlua3NjYXBlOmN5PSIzMi4wMDA3NjkiIGlua3NjYXBlOnBhZ2VvcGFjaXR5PSIwIiBpbmtzY2FwZTpwYWdlc2hhZG93PSIyIiBpbmtzY2FwZTp3aW5kb3ctaGVpZ2h0PSIxMDE3IiBpbmtzY2FwZTp3aW5kb3ctbWF4aW1pemVkPSIxIiBpbmtzY2FwZTp3aW5kb3ctd2lkdGg9IjE5MjAiIGlua3NjYXBlOndpbmRvdy14PSItOCIgaW5rc2NhcGU6d2luZG93LXk9Ii04IiBpbmtzY2FwZTp6b29tPSIxMy4xMzYzNjQiIG9iamVjdHRvbGVyYW5jZT0iMTAiIHBhZ2Vjb2xvcj0iI2ZmZmZmZiIgc2hvd2dyaWQ9ImZhbHNlIj4mI3hhOwk8L3NvZGlwb2RpOm5hbWVkdmlldz4mI3hhOzxnIGlkPSJnODU1MTciIHRyYW5zZm9ybT0idHJhbnNsYXRlKC0wLjc5NSwtMC43NSkiPiYjeGE7CTx0aXRsZSBpZD0idGl0bGU4NTQ0MCI+UGFnZS0xPC90aXRsZT4mI3hhOwk8ZyBpZD0iZ3JvdXA1MjQ5LTEiIHRyYW5zZm9ybT0idHJhbnNsYXRlKDAuNzk1LC0wLjc1KSI+JiN4YTsJCTx0aXRsZSBpZD0idGl0bGU4NTQ0MiI+SFRUUDwvdGl0bGU+JiN4YTsJCTxnIGlkPSJzaGFwZTUyNTAtMiI+JiN4YTsJCQk8dGl0bGUgaWQ9InRpdGxlODU0NDQiPmNpcmNsZTE1MDU1PC90aXRsZT4mI3hhOwkJCTxjaXJjbGUgaWQ9ImVsbGlwc2U4NTQ0NiIgc3R5bGU9ImZpbGw6I0ZGRkZGRjsiIGN4PSIyNCIgY3k9IjI1LjUiIHI9IjI0Ii8+JiN4YTsJCTwvZz4mI3hhOwkJPGcgaWQ9InNoYXBlNTI1MS00IiB0cmFuc2Zvcm09InRyYW5zbGF0ZSgxLjQ5NzE5LC0xLjMxMjUpIj4mI3hhOwkJCTx0aXRsZSBpZD0idGl0bGU4NTQ0OSI+cGF0aDE1MDU3PC90aXRsZT4mI3hhOwkJCTxwYXRoIGlkPSJwYXRoODU0NTEiIGlua3NjYXBlOmNvbm5lY3Rvci1jdXJ2YXR1cmU9IjAiIHN0eWxlPSJmaWxsOiNGRkZGRkY7IiBkPSJNNDUuMzgsMjYuNjNjMCwwLjA2LDAsMC4xMiwwLDAuMTggICAgIGMwLDEyLjUzLTEwLjE2LDIyLjY5LTIyLjY5LDIyLjY5UzAsMzkuMzQsMCwyNi44MWMwLTAuMDYsMC0wLjEyLDAtMC4xOEMwLDE0LjEsMTAuMTYsMy45NCwyMi42OSwzLjk0UzQ1LjM4LDE0LjEsNDUuMzgsMjYuNjN6Ii8+JiN4YTsJCTwvZz4mI3hhOwkJPGcgaWQ9InNoYXBlNTI1Mi02IiB0cmFuc2Zvcm09InRyYW5zbGF0ZSg0LjE2MjUsLTM1LjI1KSI+JiN4YTsJCQk8dGl0bGUgaWQ9InRpdGxlODU0NTQiPnBhdGgxNTA1OTwvdGl0bGU+JiN4YTsJCQk8cGF0aCBpZD0icGF0aDg1NDU2IiBpbmtzY2FwZTpjb25uZWN0b3ItY3VydmF0dXJlPSIwIiBzdHlsZT0iZmlsbDpub25lOyIgZD0iTTAsNDcuN2MzLjI1LDEuMDUsMTAuODQsMS44LDE5Ljc1LDEuOCAgICAgYzguNjUsMCwxNi4xMS0wLjcsMTkuNS0xLjcyTDAsNDcuN3oiLz4mI3hhOwkJCSYjeGE7CQkJCTxwYXRoIGlkPSJwYXRoODU0NTgiIGlua3NjYXBlOmNvbm5lY3Rvci1jdXJ2YXR1cmU9IjAiIHN0eWxlPSJmaWxsOm5vbmU7c3Ryb2tlOiNEM0QzRDM7c3Ryb2tlLXdpZHRoOjEuNTtzdHJva2UtbWl0ZXJsaW1pdDozOyIgZD0iICAgICBNMCw0Ny43YzMuMjUsMS4wNSwxMC44NCwxLjgsMTkuNzUsMS44YzguNjUsMCwxNi4xMS0wLjcsMTkuNS0xLjcyIi8+JiN4YTsJCTwvZz4mI3hhOwkJPGcgaWQ9InNoYXBlNTI1My05IiB0cmFuc2Zvcm09InRyYW5zbGF0ZSgxMy40NCwtMjIuNzcpIj4mI3hhOwkJCTx0aXRsZSBpZD0idGl0bGU4NTQ2MSI+cGF0aDE1MDYxPC90aXRsZT4mI3hhOwkJCTxwYXRoIGlkPSJwYXRoODU0NjMiIGlua3NjYXBlOmNvbm5lY3Rvci1jdXJ2YXR1cmU9IjAiIHN0eWxlPSJmaWxsOiNEM0QzRDM7IiBkPSJNMTAuNTYsMjYuMjVjNC4yMSwwLDguODgsOC45LDkuMDUsMjEuNzVIMS41MSAgICAgQzEuNjgsMzUuMTUsNi4zNiwyNi4yNSwxMC41NiwyNi4yNXogTTEwLjU2LDI0Ljc1QzQuNzIsMjQuNzUsMCwzNS41LDAsNDguNzVjMCwwLjI2LDAsMC41LDAsMC43NWgyMS4xMWMwLTAuMjUsMC0wLjQ5LDAtMC43NSAgICAgYzAtMTMuMjUtNC43Mi0yNC0xMC41Ni0yNEgxMC41NnoiLz4mI3hhOwkJPC9nPiYjeGE7CQk8ZyBpZD0ic2hhcGU1MjU0LTExIiB0cmFuc2Zvcm09InRyYW5zbGF0ZSgxLjEzMjUsLTEuMTI1KSI+JiN4YTsJCQk8dGl0bGUgaWQ9InRpdGxlODU0NjYiPnBhdGgxNTA2MzwvdGl0bGU+JiN4YTsJCQk8cGF0aCBpZD0icGF0aDg1NDY4IiBpbmtzY2FwZTpjb25uZWN0b3ItY3VydmF0dXJlPSIwIiBzdHlsZT0iZmlsbDojNTVEMkY2OyIgZD0iTTIzLjA1LDQ5LjVDMTAuNCw0OS40NywwLjEzLDM5LjI3LDAsMjYuNjMgICAgIHYtMC4zOGg0Ni4xMnYwLjM4QzQ1Ljk5LDM5LjI4LDM1LjcsNDkuNDgsMjMuMDUsNDkuNXoiLz4mI3hhOwkJPC9nPiYjeGE7CQk8ZyBpZD0ic2hhcGU1MjU1LTEzIiB0cmFuc2Zvcm09InRyYW5zbGF0ZSgxLjUsLTcuMDI5NDQpIj4mI3hhOwkJCTx0aXRsZSBpZD0idGl0bGU4NTQ3MSI+cGF0aDE1MDY1PC90aXRsZT4mI3hhOwkJCTxwYXRoIGlkPSJwYXRoODU0NzMiIGlua3NjYXBlOmNvbm5lY3Rvci1jdXJ2YXR1cmU9IjAiIHN0eWxlPSJmaWxsOiM1NTZBOEE7IiBkPSJNMjIuNSwxMC4wM2MxMi40MywwLDIyLjUsMTAuMDcsMjIuNSwyMi41ICAgICBzLTEwLjA3LDIyLjUtMjIuNSwyMi41UzAsNDQuOTYsMCwzMi41M2wwLDBDMCwyMC4xLDEwLjA3LDEwLjAzLDIyLjUsMTAuMDN6IE0yMi41LDguNTNjLTEzLjI1LDAtMjQsMTAuNzUtMjQsMjRzMTAuNzUsMjQsMjQsMjQgICAgIHMyNC0xMC43NSwyNC0yNGwwLDBDNDYuNSwxOS4yOCwzNS43NSw4LjUzLDIyLjUsOC41M3oiLz4mI3hhOwkJPC9nPiYjeGE7CQk8ZyBpZD0ic2hhcGU1MjU2LTE1IiB0cmFuc2Zvcm09InRyYW5zbGF0ZSg0LjE2MjUsLTExLjc2KSI+JiN4YTsJCQk8dGl0bGUgaWQ9InRpdGxlODU0NzYiPnBhdGgxNTA2NzwvdGl0bGU+JiN4YTsJCQk8cGF0aCBpZD0icGF0aDg1NDc4IiBpbmtzY2FwZTpjb25uZWN0b3ItY3VydmF0dXJlPSIwIiBzdHlsZT0iZmlsbDpub25lOyIgZD0iTTAsNDkuNWMzLjI1LTEuMDYsMTAuODctMS44LDE5Ljc1LTEuOCAgICAgYzguNjUsMCwxNi4xMSwwLjcxLDE5LjUsMS43M0wwLDQ5LjV6Ii8+JiN4YTsJCQkmI3hhOwkJCQk8cGF0aCBpZD0icGF0aDg1NDgwIiBpbmtzY2FwZTpjb25uZWN0b3ItY3VydmF0dXJlPSIwIiBzdHlsZT0iZmlsbDpub25lO3N0cm9rZTojNTU2QThBO3N0cm9rZS13aWR0aDoxLjU7c3Ryb2tlLW1pdGVybGltaXQ6MzsiIGQ9IiAgICAgTTAsNDkuNWMzLjI1LTEuMDYsMTAuODctMS44LDE5Ljc1LTEuOGM4LjY1LDAsMTYuMTEsMC43MSwxOS41LDEuNzMiLz4mI3hhOwkJPC9nPiYjeGE7CQk8ZyBpZD0ic2hhcGU1MjU3LTE4IiB0cmFuc2Zvcm09InRyYW5zbGF0ZSgwLjcwNSwtMjQpIj4mI3hhOwkJCTx0aXRsZSBpZD0idGl0bGU4NTQ4MyI+bGluZTE1MDY5PC90aXRsZT4mI3hhOwkJCSYjeGE7CQkJCTxwYXRoIGlkPSJwYXRoODU0ODUiIGlua3NjYXBlOmNvbm5lY3Rvci1jdXJ2YXR1cmU9IjAiIHN0eWxlPSJmaWxsOm5vbmU7c3Ryb2tlOiM1NTZBOEE7c3Ryb2tlLXdpZHRoOjEuNTtzdHJva2UtbWl0ZXJsaW1pdDozOyIgZD0iICAgICBNMCw0OS41aDQ2Ljc5Ii8+JiN4YTsJCTwvZz4mI3hhOwkJPGcgaWQ9Imdyb3VwNTI1OC0yMSIgdHJhbnNmb3JtPSJ0cmFuc2xhdGUoOC42Nzc1LC0yNi43NTI1KSI+JiN4YTsJCQk8dGl0bGUgaWQ9InRpdGxlODU0ODgiPmcxNTA3OTwvdGl0bGU+JiN4YTsJCQk8ZyBpZD0ic2hhcGU1MjU5LTIyIj4mI3hhOwkJCQk8dGl0bGUgaWQ9InRpdGxlODU0OTAiPnBhdGgxNTA3MTwvdGl0bGU+JiN4YTsJCQkJPHBhdGggaWQ9InBhdGg4NTQ5MiIgaW5rc2NhcGU6Y29ubmVjdG9yLWN1cnZhdHVyZT0iMCIgc3R5bGU9ImZpbGw6IzU1NkE4QTsiIGQ9Ik03LjU5LDQ5LjQ5SDYuMDFWNDUuNEgxLjU3djQuMUgwdi05LjQ2aDEuNTcgICAgICBWNDRoNC40NHYtMy45N2gxLjU4VjQ5LjQ5eiIvPiYjeGE7CQkJPC9nPiYjeGE7CQkJPGcgaWQ9InNoYXBlNTI2MC0yNCIgdHJhbnNmb3JtPSJ0cmFuc2xhdGUoOSwtMC4wMDc1KSI+JiN4YTsJCQkJPHRpdGxlIGlkPSJ0aXRsZTg1NDk1Ij5wYXRoMTUwNzM8L3RpdGxlPiYjeGE7CQkJCTxwYXRoIGlkPSJwYXRoODU0OTciIGlua3NjYXBlOmNvbm5lY3Rvci1jdXJ2YXR1cmU9IjAiIHN0eWxlPSJmaWxsOiM1NTZBOEE7IiBkPSJNNi45OSw0MS4zOUg0LjI3djguMTFIMi43MXYtOC4xMUgwdi0xLjM0aDcgICAgICBMNi45OSw0MS4zOXoiLz4mI3hhOwkJCTwvZz4mI3hhOwkJCTxnIGlkPSJzaGFwZTUyNjEtMjYiIHRyYW5zZm9ybT0idHJhbnNsYXRlKDE2LjcxLC0wLjAwNzUpIj4mI3hhOwkJCQk8dGl0bGUgaWQ9InRpdGxlODU1MDAiPnBhdGgxNTA3NTwvdGl0bGU+JiN4YTsJCQkJPHBhdGggaWQ9InBhdGg4NTUwMiIgaW5rc2NhcGU6Y29ubmVjdG9yLWN1cnZhdHVyZT0iMCIgc3R5bGU9ImZpbGw6IzU1NkE4QTsiIGQ9Ik02Ljk5LDQxLjM5SDQuMjd2OC4xMUgyLjcxdi04LjExSDB2LTEuMzRoNyAgICAgIEw2Ljk5LDQxLjM5eiIvPiYjeGE7CQkJPC9nPiYjeGE7CQkJPGcgaWQ9InNoYXBlNTI2Mi0yOCIgdHJhbnNmb3JtPSJ0cmFuc2xhdGUoMjUuMDcyNSwtMC4wMDc1KSI+JiN4YTsJCQkJPHRpdGxlIGlkPSJ0aXRsZTg1NTA1Ij5wYXRoMTUwNzc8L3RpdGxlPiYjeGE7CQkJCTxwYXRoIGlkPSJwYXRoODU1MDciIGlua3NjYXBlOmNvbm5lY3Rvci1jdXJ2YXR1cmU9IjAiIHN0eWxlPSJmaWxsOiM1NTZBOEE7IiBkPSJNMS41Nyw0Ni4wN3YzLjQzSDB2LTkuNDVoMi44NiAgICAgIGMwLjkxLTAuMDYsMS44LDAuMjEsMi41MywwLjc1YzAuNjEsMC41NCwwLjk1LDEuMzMsMC45LDIuMTRjMC4wMywwLjg1LTAuMzIsMS42Ny0wLjk0LDIuMjVjLTAuNjksMC42MS0xLjYsMC45My0yLjUyLDAuODhIMS41NyAgICAgIHogTTEuNTcsNDEuMzR2My40MmgxLjAyYzAuNTQsMC4wMywxLjA3LTAuMTMsMS41LTAuNDZjMC4zNi0wLjM0LDAuNTUtMC44MiwwLjUyLTEuMzJjMC0xLjExLTAuNjQtMS42Ny0xLjkzLTEuNjdMMS41Nyw0MS4zNHoiLz4mI3hhOwkJCTwvZz4mI3hhOwkJPC9nPiYjeGE7CQk8ZyBpZD0ic2hhcGU1MjYzLTMwIiB0cmFuc2Zvcm09InRyYW5zbGF0ZSgxMy40NDc1KSI+JiN4YTsJCQk8dGl0bGUgaWQ9InRpdGxlODU1MTEiPnBhdGgxNTA4MTwvdGl0bGU+JiN4YTsJCQk8cGF0aCBpZD0icGF0aDg1NTEzIiBpbmtzY2FwZTpjb25uZWN0b3ItY3VydmF0dXJlPSIwIiBzdHlsZT0iZmlsbDojNTU2QThBOyIgZD0iTTE5LjYsMjYuMjVDMTkuNDMsMzkuMTEsMTQuNzYsNDgsMTAuNTUsNDggICAgIFMxLjY3LDM5LjExLDEuNSwyNi4yNUgxOS42eiBNMjEuMSwyNC43NUgwYzAsMC4yNSwwLDAuNSwwLDAuNzVjMCwxMy4yNSw0LjcyLDI0LDEwLjU2LDI0YzUuODMsMCwxMC41NS0xMC43NSwxMC41NS0yNCAgICAgYzAtMC4yNSwwLTAuNSwwLTAuNzVIMjEuMXoiLz4mI3hhOwkJPC9nPiYjeGE7CTwvZz4mI3hhOzwvZz4mI3hhOzwvc3ZnPg==;" vertex="1" parent="1">
          <mxGeometry x="170" y="370" width="48" height="48" as="geometry" />
        </mxCell>
        <mxCell id="feeIY1tUaP1cyDwpqvwu-18" value="" style="edgeStyle=orthogonalEdgeStyle;rounded=0;orthogonalLoop=1;jettySize=auto;html=1;" edge="1" parent="1" source="feeIY1tUaP1cyDwpqvwu-14" target="feeIY1tUaP1cyDwpqvwu-17">
          <mxGeometry relative="1" as="geometry" />
        </mxCell>
        <mxCell id="feeIY1tUaP1cyDwpqvwu-14" value="data pack" style="html=1;verticalLabelPosition=bottom;align=center;labelBackgroundColor=#ffffff;verticalAlign=top;strokeWidth=2;strokeColor=#0080F0;shadow=0;dashed=0;shape=mxgraph.ios7.icons.data;" vertex="1" parent="1">
          <mxGeometry x="380" y="254.45" width="24" height="29.099999999999998" as="geometry" />
        </mxCell>
        <mxCell id="feeIY1tUaP1cyDwpqvwu-23" value="" style="edgeStyle=orthogonalEdgeStyle;rounded=0;orthogonalLoop=1;jettySize=auto;html=1;" edge="1" parent="1" source="feeIY1tUaP1cyDwpqvwu-17" target="feeIY1tUaP1cyDwpqvwu-22">
          <mxGeometry relative="1" as="geometry" />
        </mxCell>
        <mxCell id="feeIY1tUaP1cyDwpqvwu-17" value="GLOBAL DATA MODEL &#xa;&#xa;AGRESSO" style="fontStyle=1;" vertex="1" parent="1">
          <mxGeometry x="440" y="250" width="140" height="60" as="geometry" />
        </mxCell>
        <mxCell id="feeIY1tUaP1cyDwpqvwu-26" value="" style="edgeStyle=orthogonalEdgeStyle;rounded=0;orthogonalLoop=1;jettySize=auto;html=1;" edge="1" parent="1" source="feeIY1tUaP1cyDwpqvwu-20" target="feeIY1tUaP1cyDwpqvwu-25">
          <mxGeometry relative="1" as="geometry" />
        </mxCell>
        <mxCell id="feeIY1tUaP1cyDwpqvwu-20" value="SCUSI Data Governance File" style="shadow=0;dashed=0;html=1;strokeColor=none;fillColor=#4495D1;labelPosition=center;verticalLabelPosition=bottom;verticalAlign=top;align=center;outlineConnect=0;shape=mxgraph.veeam.2d.file_system_browser;" vertex="1" parent="1">
          <mxGeometry x="630" y="144.10000000000005" width="44.8" height="44.8" as="geometry" />
        </mxCell>
        <mxCell id="feeIY1tUaP1cyDwpqvwu-24" style="edgeStyle=orthogonalEdgeStyle;rounded=0;orthogonalLoop=1;jettySize=auto;html=1;" edge="1" parent="1" source="feeIY1tUaP1cyDwpqvwu-22" target="feeIY1tUaP1cyDwpqvwu-20">
          <mxGeometry relative="1" as="geometry" />
        </mxCell>
        <mxCell id="feeIY1tUaP1cyDwpqvwu-22" value="ETL" style="shape=image;verticalLabelPosition=bottom;labelBackgroundColor=#ffffff;verticalAlign=top;aspect=fixed;imageAspect=0;image=data:image/svg+xml,PHN2ZyB4bWxuczpjYz0iaHR0cDovL2NyZWF0aXZlY29tbW9ucy5vcmcvbnMjIiB4bWxuczpkYz0iaHR0cDovL3B1cmwub3JnL2RjL2VsZW1lbnRzLzEuMS8iIHhtbG5zOmlua3NjYXBlPSJodHRwOi8vd3d3Lmlua3NjYXBlLm9yZy9uYW1lc3BhY2VzL2lua3NjYXBlIiB4bWxuczpyZGY9Imh0dHA6Ly93d3cudzMub3JnLzE5OTkvMDIvMjItcmRmLXN5bnRheC1ucyMiIHhtbG5zOnNvZGlwb2RpPSJodHRwOi8vc29kaXBvZGkuc291cmNlZm9yZ2UubmV0L0RURC9zb2RpcG9kaS0wLmR0ZCIgeG1sbnM6c3ZnPSJodHRwOi8vd3d3LnczLm9yZy8yMDAwL3N2ZyIgeG1sbnM9Imh0dHA6Ly93d3cudzMub3JnLzIwMDAvc3ZnIiB4bWxuczp4bGluaz0iaHR0cDovL3d3dy53My5vcmcvMTk5OS94bGluayIgdmVyc2lvbj0iMS4xIiBpZD0ic3ZnNTYwMTYiIGlua3NjYXBlOnZlcnNpb249IjAuOTIuMyAoMjQwNTU0NiwgMjAxOC0wMy0xMSkiIHNvZGlwb2RpOmRvY25hbWU9ImV0bC5zdmciIHg9IjBweCIgeT0iMHB4IiB2aWV3Qm94PSIwIDAgNTMuMzYgMzIuOTgiIHN0eWxlPSJlbmFibGUtYmFja2dyb3VuZDpuZXcgMCAwIDUzLjM2IDMyLjk4OyIgeG1sOnNwYWNlPSJwcmVzZXJ2ZSI+JiN4YTs8c29kaXBvZGk6bmFtZWR2aWV3IGJvcmRlcmNvbG9yPSIjNjY2NjY2IiBib3JkZXJvcGFjaXR5PSIxIiBmaXQtbWFyZ2luLWJvdHRvbT0iMCIgZml0LW1hcmdpbi1sZWZ0PSIwIiBmaXQtbWFyZ2luLXJpZ2h0PSIwIiBmaXQtbWFyZ2luLXRvcD0iMCIgZ3JpZHRvbGVyYW5jZT0iMTAiIGd1aWRldG9sZXJhbmNlPSIxMCIgaWQ9Im5hbWVkdmlldzU2MDE4IiBpbmtzY2FwZTpjdXJyZW50LWxheWVyPSJzdmc1NjAxNiIgaW5rc2NhcGU6Y3g9IjM1Ljk5NTUwOSIgaW5rc2NhcGU6Y3k9IjEzLjU4MDkxMSIgaW5rc2NhcGU6cGFnZW9wYWNpdHk9IjAiIGlua3NjYXBlOnBhZ2VzaGFkb3c9IjIiIGlua3NjYXBlOndpbmRvdy1oZWlnaHQ9IjEwMTciIGlua3NjYXBlOndpbmRvdy1tYXhpbWl6ZWQ9IjEiIGlua3NjYXBlOndpbmRvdy13aWR0aD0iMTkyMCIgaW5rc2NhcGU6d2luZG93LXg9Ii04IiBpbmtzY2FwZTp3aW5kb3cteT0iLTgiIGlua3NjYXBlOnpvb209IjkuMzYxMjkyIiBvYmplY3R0b2xlcmFuY2U9IjEwIiBwYWdlY29sb3I9IiNmZmZmZmYiIHNob3dncmlkPSJmYWxzZSI+JiN4YTsJPC9zb2RpcG9kaTpuYW1lZHZpZXc+JiN4YTs8ZyBpZD0iZzU2MDE0IiB0cmFuc2Zvcm09InRyYW5zbGF0ZSgtMC43NSwtMC45OTY2MTgyMSkiPiYjeGE7CTx0aXRsZSBpZD0idGl0bGU1NTc0OSI+UGFnZS0xPC90aXRsZT4mI3hhOwk8ZyBpZD0iZ3JvdXAzMDAxLTEiIHRyYW5zZm9ybT0idHJhbnNsYXRlKDEuNSwtMS41KSI+JiN4YTsJCTx0aXRsZSBpZD0idGl0bGU1NTc1MSI+RVRMPC90aXRsZT4mI3hhOwkJPGcgaWQ9Imdyb3VwMzAwMi0yIiB0cmFuc2Zvcm09InRyYW5zbGF0ZSgyOC41MDQzKSI+JiN4YTsJCQk8dGl0bGUgaWQ9InRpdGxlNTU3NTMiPmcxNTkxMC4zNzkyNDwvdGl0bGU+JiN4YTsJCQk8ZyBpZD0ic2hhcGUzMDAzLTMiIHRyYW5zZm9ybT0idHJhbnNsYXRlKDEzLjIsLTIxLjgzMDgpIj4mI3hhOwkJCQk8dGl0bGUgaWQ9InRpdGxlNTU3NTUiPnBvbHlnb24xNTkwMDwvdGl0bGU+JiN4YTsJCQkJPHBhdGggaWQ9InBhdGg1NTc1NyIgaW5rc2NhcGU6Y29ubmVjdG9yLWN1cnZhdHVyZT0iMCIgc3R5bGU9ImZpbGw6I0U1RTVFNTsiIGQ9Ik0xMC42NiwzNC43M0gwVjI0LjU4TDEwLjY2LDM0LjczeiIvPiYjeGE7CQkJPC9nPiYjeGE7CQkJPGcgaWQ9InNoYXBlMzAwNC01IiB0cmFuc2Zvcm09InRyYW5zbGF0ZSgxLjAxNTM4LC0xLjAxNTM4KSI+JiN4YTsJCQkJPHRpdGxlIGlkPSJ0aXRsZTU1NzYwIj5yZWN0MTU5MDI8L3RpdGxlPiYjeGE7CQkJCTxyZWN0IGlkPSJyZWN0NTU3NjIiIHg9IjAiIHk9IjQuMjciIHN0eWxlPSJmaWxsOiNGRkZGRkY7IiB3aWR0aD0iMTIuMTgiIGhlaWdodD0iMzAuNDYiLz4mI3hhOwkJCTwvZz4mI3hhOwkJCTxnIGlkPSJzaGFwZTMwMDUtNyI+JiN4YTsJCQkJPHRpdGxlIGlkPSJ0aXRsZTU1NzY1Ij5wYXRoMTU5MDQ8L3RpdGxlPiYjeGE7CQkJCSYjeGE7CQkJCQk8cGF0aCBpZD0icGF0aDU1NzY3IiBpbmtzY2FwZTpjb25uZWN0b3ItY3VydmF0dXJlPSIwIiBzdHlsZT0iZmlsbDpub25lO3N0cm9rZTojNTU2QThBO3N0cm9rZS13aWR0aDoxLjU7c3Ryb2tlLW1pdGVybGltaXQ6MzsiIGQ9IiAgICAgIE0xMy4xNCwzLjI1SDAuNTFDMC4yMywzLjI1LDAsMy40OCwwLDMuNzZjMCwwLDAsMCwwLDBsMCwzMC40NmMwLDAuMjgsMC4yMywwLjUxLDAuNTEsMC41MWwyMi4zNCwwYzAuMjgsMCwwLjUxLTAuMjMsMC41MS0wLjUxICAgICAgbC0wLjAxLTIxLjEzTDEzLjE0LDMuMjV6Ii8+JiN4YTsJCQk8L2c+JiN4YTsJCQk8ZyBpZD0ic2hhcGUzMDA2LTkiIHRyYW5zZm9ybT0idHJhbnNsYXRlKDAuNTA3NjkyLC0wLjUwNzY5MikiPiYjeGE7CQkJCTx0aXRsZSBpZD0idGl0bGU1NTc3MCI+cmVjdDE1OTA2PC90aXRsZT4mI3hhOwkJCQk8cmVjdCBpZD0icmVjdDU1NzcyIiB4PSIwIiB5PSI0LjI3IiBzdHlsZT0iZmlsbDojRTVFNUU1OyIgd2lkdGg9IjguMTIiIGhlaWdodD0iMzAuNDYiLz4mI3hhOwkJCTwvZz4mI3hhOwkJCTxnIGlkPSJzaGFwZTMwMDctMTEiIHRyYW5zZm9ybT0idHJhbnNsYXRlKDEzLjIsLTIxLjU3NjkpIj4mI3hhOwkJCQk8dGl0bGUgaWQ9InRpdGxlNTU3NzUiPnBvbHlsaW5lMTU5MDg8L3RpdGxlPiYjeGE7CQkJCTxwYXRoIGlkPSJwYXRoNTU3NzciIGlua3NjYXBlOmNvbm5lY3Rvci1jdXJ2YXR1cmU9IjAiIHN0eWxlPSJmaWxsOm5vbmU7IiBkPSJNMCwyNC41OHYxMC4xNWgxMC42NkwwLDI0LjU4eiIvPiYjeGE7CQkJCSYjeGE7CQkJCQk8cGF0aCBpZD0icGF0aDU1Nzc5IiBpbmtzY2FwZTpjb25uZWN0b3ItY3VydmF0dXJlPSIwIiBzdHlsZT0iZmlsbDpub25lO3N0cm9rZTojNTU2QThBO3N0cm9rZS13aWR0aDoxLjU7c3Ryb2tlLW1pdGVybGltaXQ6MzsiIGQ9IiAgICAgIE0wLDI0LjU4djEwLjE1aDEwLjY2Ii8+JiN4YTsJCQk8L2c+JiN4YTsJCTwvZz4mI3hhOwkJPGcgaWQ9Imdyb3VwMzAwOC0xNCIgdHJhbnNmb3JtPSJ0cmFuc2xhdGUoMjQuMjM0NCkiPiYjeGE7CQkJPHRpdGxlIGlkPSJ0aXRsZTU1NzgzIj5nMTU5MTAuMzc5MzA8L3RpdGxlPiYjeGE7CQkJPGcgaWQ9InNoYXBlMzAwOS0xNSIgdHJhbnNmb3JtPSJ0cmFuc2xhdGUoMTMuMiwtMjEuODMwOCkiPiYjeGE7CQkJCTx0aXRsZSBpZD0idGl0bGU1NTc4NSI+cG9seWdvbjE1OTAwPC90aXRsZT4mI3hhOwkJCQk8cGF0aCBpZD0icGF0aDU1Nzg3IiBpbmtzY2FwZTpjb25uZWN0b3ItY3VydmF0dXJlPSIwIiBzdHlsZT0iZmlsbDojRTVFNUU1OyIgZD0iTTEwLjY2LDM0LjczSDBWMjQuNThMMTAuNjYsMzQuNzN6Ii8+JiN4YTsJCQk8L2c+JiN4YTsJCQk8ZyBpZD0ic2hhcGUzMDEwLTE3IiB0cmFuc2Zvcm09InRyYW5zbGF0ZSgxLjAxNTM4LC0xLjAxNTM4KSI+JiN4YTsJCQkJPHRpdGxlIGlkPSJ0aXRsZTU1NzkwIj5yZWN0MTU5MDI8L3RpdGxlPiYjeGE7CQkJCTxyZWN0IGlkPSJyZWN0NTU3OTIiIHg9IjAiIHk9IjQuMjciIHN0eWxlPSJmaWxsOiNGRkZGRkY7IiB3aWR0aD0iMTIuMTgiIGhlaWdodD0iMzAuNDYiLz4mI3hhOwkJCTwvZz4mI3hhOwkJCTxnIGlkPSJzaGFwZTMwMTEtMTkiPiYjeGE7CQkJCTx0aXRsZSBpZD0idGl0bGU1NTc5NSI+cGF0aDE1OTA0PC90aXRsZT4mI3hhOwkJCQkmI3hhOwkJCQkJPHBhdGggaWQ9InBhdGg1NTc5NyIgaW5rc2NhcGU6Y29ubmVjdG9yLWN1cnZhdHVyZT0iMCIgc3R5bGU9ImZpbGw6bm9uZTtzdHJva2U6IzU1NkE4QTtzdHJva2Utd2lkdGg6MS41O3N0cm9rZS1taXRlcmxpbWl0OjM7IiBkPSIgICAgICBNMTMuMTQsMy4yNUgwLjUxQzAuMjMsMy4yNSwwLDMuNDgsMCwzLjc2YzAsMCwwLDAsMCwwbDAsMzAuNDZjMCwwLjI4LDAuMjMsMC41MSwwLjUxLDAuNTFsMjIuMzQsMGMwLjI4LDAsMC41MS0wLjIzLDAuNTEtMC41MSAgICAgIGwtMC4wMS0yMS4xM0wxMy4xNCwzLjI1eiIvPiYjeGE7CQkJPC9nPiYjeGE7CQkJPGcgaWQ9InNoYXBlMzAxMi0yMSIgdHJhbnNmb3JtPSJ0cmFuc2xhdGUoMC41MDc2OTIsLTAuNTA3NjkyKSI+JiN4YTsJCQkJPHRpdGxlIGlkPSJ0aXRsZTU1ODAwIj5yZWN0MTU5MDY8L3RpdGxlPiYjeGE7CQkJCTxyZWN0IGlkPSJyZWN0NTU4MDIiIHg9IjAiIHk9IjQuMjciIHN0eWxlPSJmaWxsOiNFNUU1RTU7IiB3aWR0aD0iOC4xMiIgaGVpZ2h0PSIzMC40NiIvPiYjeGE7CQkJPC9nPiYjeGE7CQkJPGcgaWQ9InNoYXBlMzAxMy0yMyIgdHJhbnNmb3JtPSJ0cmFuc2xhdGUoMTMuMiwtMjEuNTc2OSkiPiYjeGE7CQkJCTx0aXRsZSBpZD0idGl0bGU1NTgwNSI+cG9seWxpbmUxNTkwODwvdGl0bGU+JiN4YTsJCQkJPHBhdGggaWQ9InBhdGg1NTgwNyIgaW5rc2NhcGU6Y29ubmVjdG9yLWN1cnZhdHVyZT0iMCIgc3R5bGU9ImZpbGw6bm9uZTsiIGQ9Ik0wLDI0LjU4djEwLjE1aDEwLjY2TDAsMjQuNTh6Ii8+JiN4YTsJCQkJJiN4YTsJCQkJCTxwYXRoIGlkPSJwYXRoNTU4MDkiIGlua3NjYXBlOmNvbm5lY3Rvci1jdXJ2YXR1cmU9IjAiIHN0eWxlPSJmaWxsOm5vbmU7c3Ryb2tlOiM1NTZBOEE7c3Ryb2tlLXdpZHRoOjEuNTtzdHJva2UtbWl0ZXJsaW1pdDozOyIgZD0iICAgICAgTTAsMjQuNTh2MTAuMTVoMTAuNjYiLz4mI3hhOwkJCTwvZz4mI3hhOwkJPC9nPiYjeGE7CQk8ZyBpZD0iZ3JvdXAzMDE0LTI2IiB0cmFuc2Zvcm09InRyYW5zbGF0ZSgyMC41NzI4KSI+JiN4YTsJCQk8dGl0bGUgaWQ9InRpdGxlNTU4MTMiPmcxNTkxMC4zNzkzNjwvdGl0bGU+JiN4YTsJCQk8ZyBpZD0ic2hhcGUzMDE1LTI3IiB0cmFuc2Zvcm09InRyYW5zbGF0ZSgxMy4yLC0yMS44MzA4KSI+JiN4YTsJCQkJPHRpdGxlIGlkPSJ0aXRsZTU1ODE1Ij5wb2x5Z29uMTU5MDA8L3RpdGxlPiYjeGE7CQkJCTxwYXRoIGlkPSJwYXRoNTU4MTciIGlua3NjYXBlOmNvbm5lY3Rvci1jdXJ2YXR1cmU9IjAiIHN0eWxlPSJmaWxsOiNFNUU1RTU7IiBkPSJNMTAuNjYsMzQuNzNIMFYyNC41OEwxMC42NiwzNC43M3oiLz4mI3hhOwkJCTwvZz4mI3hhOwkJCTxnIGlkPSJzaGFwZTMwMTYtMjkiIHRyYW5zZm9ybT0idHJhbnNsYXRlKDEuMDE1MzgsLTEuMDE1MzgpIj4mI3hhOwkJCQk8dGl0bGUgaWQ9InRpdGxlNTU4MjAiPnJlY3QxNTkwMjwvdGl0bGU+JiN4YTsJCQkJPHJlY3QgaWQ9InJlY3Q1NTgyMiIgeD0iMCIgeT0iNC4yNyIgc3R5bGU9ImZpbGw6I0ZGRkZGRjsiIHdpZHRoPSIxMi4xOCIgaGVpZ2h0PSIzMC40NiIvPiYjeGE7CQkJPC9nPiYjeGE7CQkJPGcgaWQ9InNoYXBlMzAxNy0zMSI+JiN4YTsJCQkJPHRpdGxlIGlkPSJ0aXRsZTU1ODI1Ij5wYXRoMTU5MDQ8L3RpdGxlPiYjeGE7CQkJCSYjeGE7CQkJCQk8cGF0aCBpZD0icGF0aDU1ODI3IiBpbmtzY2FwZTpjb25uZWN0b3ItY3VydmF0dXJlPSIwIiBzdHlsZT0iZmlsbDpub25lO3N0cm9rZTojNTU2QThBO3N0cm9rZS13aWR0aDoxLjU7c3Ryb2tlLW1pdGVybGltaXQ6MzsiIGQ9IiAgICAgIE0xMy4xNCwzLjI1SDAuNTFDMC4yMywzLjI1LDAsMy40OCwwLDMuNzZjMCwwLDAsMCwwLDBsMCwzMC40NmMwLDAuMjgsMC4yMywwLjUxLDAuNTEsMC41MWwyMi4zNCwwYzAuMjgsMCwwLjUxLTAuMjMsMC41MS0wLjUxICAgICAgbC0wLjAxLTIxLjEzTDEzLjE0LDMuMjV6Ii8+JiN4YTsJCQk8L2c+JiN4YTsJCQk8ZyBpZD0ic2hhcGUzMDE4LTMzIiB0cmFuc2Zvcm09InRyYW5zbGF0ZSgwLjUwNzY5MiwtMC41MDc2OTIpIj4mI3hhOwkJCQk8dGl0bGUgaWQ9InRpdGxlNTU4MzAiPnJlY3QxNTkwNjwvdGl0bGU+JiN4YTsJCQkJPHJlY3QgaWQ9InJlY3Q1NTgzMiIgeD0iMCIgeT0iNC4yNyIgc3R5bGU9ImZpbGw6I0U1RTVFNTsiIHdpZHRoPSI4LjEyIiBoZWlnaHQ9IjMwLjQ2Ii8+JiN4YTsJCQk8L2c+JiN4YTsJCQk8ZyBpZD0ic2hhcGUzMDE5LTM1IiB0cmFuc2Zvcm09InRyYW5zbGF0ZSgxMy4yLC0yMS41NzY5KSI+JiN4YTsJCQkJPHRpdGxlIGlkPSJ0aXRsZTU1ODM1Ij5wb2x5bGluZTE1OTA4PC90aXRsZT4mI3hhOwkJCQk8cGF0aCBpZD0icGF0aDU1ODM3IiBpbmtzY2FwZTpjb25uZWN0b3ItY3VydmF0dXJlPSIwIiBzdHlsZT0iZmlsbDpub25lOyIgZD0iTTAsMjQuNTh2MTAuMTVoMTAuNjZMMCwyNC41OHoiLz4mI3hhOwkJCQkmI3hhOwkJCQkJPHBhdGggaWQ9InBhdGg1NTgzOSIgaW5rc2NhcGU6Y29ubmVjdG9yLWN1cnZhdHVyZT0iMCIgc3R5bGU9ImZpbGw6bm9uZTtzdHJva2U6IzU1NkE4QTtzdHJva2Utd2lkdGg6MS41O3N0cm9rZS1taXRlcmxpbWl0OjM7IiBkPSIgICAgICBNMCwyNC41OHYxMC4xNWgxMC42NiIvPiYjeGE7CQkJPC9nPiYjeGE7CQk8L2c+JiN4YTsJCTxnIGlkPSJncm91cDMwMjAtMzgiIHRyYW5zZm9ybT0idHJhbnNsYXRlKDE2LjY5MDYpIj4mI3hhOwkJCTx0aXRsZSBpZD0idGl0bGU1NTg0MyI+ZzE1OTEwLjM3OTQyPC90aXRsZT4mI3hhOwkJCTxnIGlkPSJzaGFwZTMwMjEtMzkiIHRyYW5zZm9ybT0idHJhbnNsYXRlKDEzLjIsLTIxLjgzMDgpIj4mI3hhOwkJCQk8dGl0bGUgaWQ9InRpdGxlNTU4NDUiPnBvbHlnb24xNTkwMDwvdGl0bGU+JiN4YTsJCQkJPHBhdGggaWQ9InBhdGg1NTg0NyIgaW5rc2NhcGU6Y29ubmVjdG9yLWN1cnZhdHVyZT0iMCIgc3R5bGU9ImZpbGw6I0U1RTVFNTsiIGQ9Ik0xMC42NiwzNC43M0gwVjI0LjU4TDEwLjY2LDM0LjczeiIvPiYjeGE7CQkJPC9nPiYjeGE7CQkJPGcgaWQ9InNoYXBlMzAyMi00MSIgdHJhbnNmb3JtPSJ0cmFuc2xhdGUoMS4wMTUzOCwtMS4wMTUzOCkiPiYjeGE7CQkJCTx0aXRsZSBpZD0idGl0bGU1NTg1MCI+cmVjdDE1OTAyPC90aXRsZT4mI3hhOwkJCQk8cmVjdCBpZD0icmVjdDU1ODUyIiB4PSIwIiB5PSI0LjI3IiBzdHlsZT0iZmlsbDojRkZGRkZGOyIgd2lkdGg9IjEyLjE4IiBoZWlnaHQ9IjMwLjQ2Ii8+JiN4YTsJCQk8L2c+JiN4YTsJCQk8ZyBpZD0ic2hhcGUzMDIzLTQzIj4mI3hhOwkJCQk8dGl0bGUgaWQ9InRpdGxlNTU4NTUiPnBhdGgxNTkwNDwvdGl0bGU+JiN4YTsJCQkJJiN4YTsJCQkJCTxwYXRoIGlkPSJwYXRoNTU4NTciIGlua3NjYXBlOmNvbm5lY3Rvci1jdXJ2YXR1cmU9IjAiIHN0eWxlPSJmaWxsOm5vbmU7c3Ryb2tlOiM1NTZBOEE7c3Ryb2tlLXdpZHRoOjEuNTtzdHJva2UtbWl0ZXJsaW1pdDozOyIgZD0iICAgICAgTTEzLjE0LDMuMjVIMC41MUMwLjIzLDMuMjUsMCwzLjQ4LDAsMy43NmMwLDAsMCwwLDAsMGwwLDMwLjQ2YzAsMC4yOCwwLjIzLDAuNTEsMC41MSwwLjUxbDIyLjM0LDBjMC4yOCwwLDAuNTEtMC4yMywwLjUxLTAuNTEgICAgICBsLTAuMDEtMjEuMTNMMTMuMTQsMy4yNXoiLz4mI3hhOwkJCTwvZz4mI3hhOwkJCTxnIGlkPSJzaGFwZTMwMjQtNDUiIHRyYW5zZm9ybT0idHJhbnNsYXRlKDAuNTA3NjkyLC0wLjUwNzY5MikiPiYjeGE7CQkJCTx0aXRsZSBpZD0idGl0bGU1NTg2MCI+cmVjdDE1OTA2PC90aXRsZT4mI3hhOwkJCQk8cmVjdCBpZD0icmVjdDU1ODYyIiB4PSIwIiB5PSI0LjI3IiBzdHlsZT0iZmlsbDojRTVFNUU1OyIgd2lkdGg9IjguMTIiIGhlaWdodD0iMzAuNDYiLz4mI3hhOwkJCTwvZz4mI3hhOwkJCTxnIGlkPSJzaGFwZTMwMjUtNDciIHRyYW5zZm9ybT0idHJhbnNsYXRlKDEzLjIsLTIxLjU3NjkpIj4mI3hhOwkJCQk8dGl0bGUgaWQ9InRpdGxlNTU4NjUiPnBvbHlsaW5lMTU5MDg8L3RpdGxlPiYjeGE7CQkJCTxwYXRoIGlkPSJwYXRoNTU4NjciIGlua3NjYXBlOmNvbm5lY3Rvci1jdXJ2YXR1cmU9IjAiIHN0eWxlPSJmaWxsOm5vbmU7IiBkPSJNMCwyNC41OHYxMC4xNWgxMC42NkwwLDI0LjU4eiIvPiYjeGE7CQkJCSYjeGE7CQkJCQk8cGF0aCBpZD0icGF0aDU1ODY5IiBpbmtzY2FwZTpjb25uZWN0b3ItY3VydmF0dXJlPSIwIiBzdHlsZT0iZmlsbDpub25lO3N0cm9rZTojNTU2QThBO3N0cm9rZS13aWR0aDoxLjU7c3Ryb2tlLW1pdGVybGltaXQ6MzsiIGQ9IiAgICAgIE0wLDI0LjU4djEwLjE1aDEwLjY2Ii8+JiN4YTsJCQk8L2c+JiN4YTsJCTwvZz4mI3hhOwkJPGcgaWQ9Imdyb3VwMzAyNi01MCIgdHJhbnNmb3JtPSJ0cmFuc2xhdGUoMTIuODA0NCkiPiYjeGE7CQkJPHRpdGxlIGlkPSJ0aXRsZTU1ODczIj5nMTU5MTAuMzc5NDg8L3RpdGxlPiYjeGE7CQkJPGcgaWQ9InNoYXBlMzAyNy01MSIgdHJhbnNmb3JtPSJ0cmFuc2xhdGUoMTMuMiwtMjEuODMwOCkiPiYjeGE7CQkJCTx0aXRsZSBpZD0idGl0bGU1NTg3NSI+cG9seWdvbjE1OTAwPC90aXRsZT4mI3hhOwkJCQk8cGF0aCBpZD0icGF0aDU1ODc3IiBpbmtzY2FwZTpjb25uZWN0b3ItY3VydmF0dXJlPSIwIiBzdHlsZT0iZmlsbDojRTVFNUU1OyIgZD0iTTEwLjY2LDM0LjczSDBWMjQuNThMMTAuNjYsMzQuNzN6Ii8+JiN4YTsJCQk8L2c+JiN4YTsJCQk8ZyBpZD0ic2hhcGUzMDI4LTUzIiB0cmFuc2Zvcm09InRyYW5zbGF0ZSgxLjAxNTM4LC0xLjAxNTM4KSI+JiN4YTsJCQkJPHRpdGxlIGlkPSJ0aXRsZTU1ODgwIj5yZWN0MTU5MDI8L3RpdGxlPiYjeGE7CQkJCTxyZWN0IGlkPSJyZWN0NTU4ODIiIHg9IjAiIHk9IjQuMjciIHN0eWxlPSJmaWxsOiNGRkZGRkY7IiB3aWR0aD0iMTIuMTgiIGhlaWdodD0iMzAuNDYiLz4mI3hhOwkJCTwvZz4mI3hhOwkJCTxnIGlkPSJzaGFwZTMwMjktNTUiPiYjeGE7CQkJCTx0aXRsZSBpZD0idGl0bGU1NTg4NSI+cGF0aDE1OTA0PC90aXRsZT4mI3hhOwkJCQkmI3hhOwkJCQkJPHBhdGggaWQ9InBhdGg1NTg4NyIgaW5rc2NhcGU6Y29ubmVjdG9yLWN1cnZhdHVyZT0iMCIgc3R5bGU9ImZpbGw6bm9uZTtzdHJva2U6IzU1NkE4QTtzdHJva2Utd2lkdGg6MS41O3N0cm9rZS1taXRlcmxpbWl0OjM7IiBkPSIgICAgICBNMTMuMTQsMy4yNUgwLjUxQzAuMjMsMy4yNSwwLDMuNDgsMCwzLjc2YzAsMCwwLDAsMCwwbDAsMzAuNDZjMCwwLjI4LDAuMjMsMC41MSwwLjUxLDAuNTFsMjIuMzQsMGMwLjI4LDAsMC41MS0wLjIzLDAuNTEtMC41MSAgICAgIGwtMC4wMS0yMS4xM0wxMy4xNCwzLjI1eiIvPiYjeGE7CQkJPC9nPiYjeGE7CQkJPGcgaWQ9InNoYXBlMzAzMC01NyIgdHJhbnNmb3JtPSJ0cmFuc2xhdGUoMC41MDc2OTIsLTAuNTA3NjkyKSI+JiN4YTsJCQkJPHRpdGxlIGlkPSJ0aXRsZTU1ODkwIj5yZWN0MTU5MDY8L3RpdGxlPiYjeGE7CQkJCTxyZWN0IGlkPSJyZWN0NTU4OTIiIHg9IjAiIHk9IjQuMjciIHN0eWxlPSJmaWxsOiNFNUU1RTU7IiB3aWR0aD0iOC4xMiIgaGVpZ2h0PSIzMC40NiIvPiYjeGE7CQkJPC9nPiYjeGE7CQkJPGcgaWQ9InNoYXBlMzAzMS01OSIgdHJhbnNmb3JtPSJ0cmFuc2xhdGUoMTMuMiwtMjEuNTc2OSkiPiYjeGE7CQkJCTx0aXRsZSBpZD0idGl0bGU1NTg5NSI+cG9seWxpbmUxNTkwODwvdGl0bGU+JiN4YTsJCQkJPHBhdGggaWQ9InBhdGg1NTg5NyIgaW5rc2NhcGU6Y29ubmVjdG9yLWN1cnZhdHVyZT0iMCIgc3R5bGU9ImZpbGw6bm9uZTsiIGQ9Ik0wLDI0LjU4djEwLjE1aDEwLjY2TDAsMjQuNTh6Ii8+JiN4YTsJCQkJJiN4YTsJCQkJCTxwYXRoIGlkPSJwYXRoNTU4OTkiIGlua3NjYXBlOmNvbm5lY3Rvci1jdXJ2YXR1cmU9IjAiIHN0eWxlPSJmaWxsOm5vbmU7c3Ryb2tlOiM1NTZBOEE7c3Ryb2tlLXdpZHRoOjEuNTtzdHJva2UtbWl0ZXJsaW1pdDozOyIgZD0iICAgICAgTTAsMjQuNTh2MTAuMTVoMTAuNjYiLz4mI3hhOwkJCTwvZz4mI3hhOwkJPC9nPiYjeGE7CQk8ZyBpZD0iZ3JvdXAzMDMyLTYyIiB0cmFuc2Zvcm09InRyYW5zbGF0ZSg4LjczMzE0KSI+JiN4YTsJCQk8dGl0bGUgaWQ9InRpdGxlNTU5MDMiPmcxNTkxMC4zNzk1NDwvdGl0bGU+JiN4YTsJCQk8ZyBpZD0ic2hhcGUzMDMzLTYzIiB0cmFuc2Zvcm09InRyYW5zbGF0ZSgxMy4yLC0yMS44MzA4KSI+JiN4YTsJCQkJPHRpdGxlIGlkPSJ0aXRsZTU1OTA1Ij5wb2x5Z29uMTU5MDA8L3RpdGxlPiYjeGE7CQkJCTxwYXRoIGlkPSJwYXRoNTU5MDciIGlua3NjYXBlOmNvbm5lY3Rvci1jdXJ2YXR1cmU9IjAiIHN0eWxlPSJmaWxsOiNFNUU1RTU7IiBkPSJNMTAuNjYsMzQuNzNIMFYyNC41OEwxMC42NiwzNC43M3oiLz4mI3hhOwkJCTwvZz4mI3hhOwkJCTxnIGlkPSJzaGFwZTMwMzQtNjUiIHRyYW5zZm9ybT0idHJhbnNsYXRlKDEuMDE1MzgsLTEuMDE1MzgpIj4mI3hhOwkJCQk8dGl0bGUgaWQ9InRpdGxlNTU5MTAiPnJlY3QxNTkwMjwvdGl0bGU+JiN4YTsJCQkJPHJlY3QgaWQ9InJlY3Q1NTkxMiIgeD0iMCIgeT0iNC4yNyIgc3R5bGU9ImZpbGw6I0ZGRkZGRjsiIHdpZHRoPSIxMi4xOCIgaGVpZ2h0PSIzMC40NiIvPiYjeGE7CQkJPC9nPiYjeGE7CQkJPGcgaWQ9InNoYXBlMzAzNS02NyI+JiN4YTsJCQkJPHRpdGxlIGlkPSJ0aXRsZTU1OTE1Ij5wYXRoMTU5MDQ8L3RpdGxlPiYjeGE7CQkJCSYjeGE7CQkJCQk8cGF0aCBpZD0icGF0aDU1OTE3IiBpbmtzY2FwZTpjb25uZWN0b3ItY3VydmF0dXJlPSIwIiBzdHlsZT0iZmlsbDpub25lO3N0cm9rZTojNTU2QThBO3N0cm9rZS13aWR0aDoxLjU7c3Ryb2tlLW1pdGVybGltaXQ6MzsiIGQ9IiAgICAgIE0xMy4xNCwzLjI1SDAuNTFDMC4yMywzLjI1LDAsMy40OCwwLDMuNzZjMCwwLDAsMCwwLDBsMCwzMC40NmMwLDAuMjgsMC4yMywwLjUxLDAuNTEsMC41MWwyMi4zNCwwYzAuMjgsMCwwLjUxLTAuMjMsMC41MS0wLjUxICAgICAgbC0wLjAxLTIxLjEzTDEzLjE0LDMuMjV6Ii8+JiN4YTsJCQk8L2c+JiN4YTsJCQk8ZyBpZD0ic2hhcGUzMDM2LTY5IiB0cmFuc2Zvcm09InRyYW5zbGF0ZSgwLjUwNzY5MiwtMC41MDc2OTIpIj4mI3hhOwkJCQk8dGl0bGUgaWQ9InRpdGxlNTU5MjAiPnJlY3QxNTkwNjwvdGl0bGU+JiN4YTsJCQkJPHJlY3QgaWQ9InJlY3Q1NTkyMiIgeD0iMCIgeT0iNC4yNyIgc3R5bGU9ImZpbGw6I0U1RTVFNTsiIHdpZHRoPSI4LjEyIiBoZWlnaHQ9IjMwLjQ2Ii8+JiN4YTsJCQk8L2c+JiN4YTsJCQk8ZyBpZD0ic2hhcGUzMDM3LTcxIiB0cmFuc2Zvcm09InRyYW5zbGF0ZSgxMy4yLC0yMS41NzY5KSI+JiN4YTsJCQkJPHRpdGxlIGlkPSJ0aXRsZTU1OTI1Ij5wb2x5bGluZTE1OTA4PC90aXRsZT4mI3hhOwkJCQk8cGF0aCBpZD0icGF0aDU1OTI3IiBpbmtzY2FwZTpjb25uZWN0b3ItY3VydmF0dXJlPSIwIiBzdHlsZT0iZmlsbDpub25lOyIgZD0iTTAsMjQuNTh2MTAuMTVoMTAuNjZMMCwyNC41OHoiLz4mI3hhOwkJCQkmI3hhOwkJCQkJPHBhdGggaWQ9InBhdGg1NTkyOSIgaW5rc2NhcGU6Y29ubmVjdG9yLWN1cnZhdHVyZT0iMCIgc3R5bGU9ImZpbGw6bm9uZTtzdHJva2U6IzU1NkE4QTtzdHJva2Utd2lkdGg6MS41O3N0cm9rZS1taXRlcmxpbWl0OjM7IiBkPSIgICAgICBNMCwyNC41OHYxMC4xNWgxMC42NiIvPiYjeGE7CQkJPC9nPiYjeGE7CQk8L2c+JiN4YTsJCTxnIGlkPSJncm91cDMwMzgtNzQiIHRyYW5zZm9ybT0idHJhbnNsYXRlKDQuNzU5ODQpIj4mI3hhOwkJCTx0aXRsZSBpZD0idGl0bGU1NTkzMyI+ZzE1OTEwPC90aXRsZT4mI3hhOwkJCTxnIGlkPSJzaGFwZTMwMzktNzUiIHRyYW5zZm9ybT0idHJhbnNsYXRlKDEzLjIsLTIxLjgzMDgpIj4mI3hhOwkJCQk8dGl0bGUgaWQ9InRpdGxlNTU5MzUiPnBvbHlnb24xNTkwMDwvdGl0bGU+JiN4YTsJCQkJPHBhdGggaWQ9InBhdGg1NTkzNyIgaW5rc2NhcGU6Y29ubmVjdG9yLWN1cnZhdHVyZT0iMCIgc3R5bGU9ImZpbGw6I0U1RTVFNTsiIGQ9Ik0xMC42NiwzNC43M0gwVjI0LjU4TDEwLjY2LDM0LjczeiIvPiYjeGE7CQkJPC9nPiYjeGE7CQkJPGcgaWQ9InNoYXBlMzA0MC03NyIgdHJhbnNmb3JtPSJ0cmFuc2xhdGUoMS4wMTUzOCwtMS4wMTUzOCkiPiYjeGE7CQkJCTx0aXRsZSBpZD0idGl0bGU1NTk0MCI+cmVjdDE1OTAyPC90aXRsZT4mI3hhOwkJCQk8cmVjdCBpZD0icmVjdDU1OTQyIiB4PSIwIiB5PSI0LjI3IiBzdHlsZT0iZmlsbDojRkZGRkZGOyIgd2lkdGg9IjEyLjE4IiBoZWlnaHQ9IjMwLjQ2Ii8+JiN4YTsJCQk8L2c+JiN4YTsJCQk8ZyBpZD0ic2hhcGUzMDQxLTc5Ij4mI3hhOwkJCQk8dGl0bGUgaWQ9InRpdGxlNTU5NDUiPnBhdGgxNTkwNDwvdGl0bGU+JiN4YTsJCQkJJiN4YTsJCQkJCTxwYXRoIGlkPSJwYXRoNTU5NDciIGlua3NjYXBlOmNvbm5lY3Rvci1jdXJ2YXR1cmU9IjAiIHN0eWxlPSJmaWxsOm5vbmU7c3Ryb2tlOiM1NTZBOEE7c3Ryb2tlLXdpZHRoOjEuNTtzdHJva2UtbWl0ZXJsaW1pdDozOyIgZD0iICAgICAgTTEzLjE0LDMuMjVIMC41MUMwLjIzLDMuMjUsMCwzLjQ4LDAsMy43NmMwLDAsMCwwLDAsMGwwLDMwLjQ2YzAsMC4yOCwwLjIzLDAuNTEsMC41MSwwLjUxbDIyLjM0LDBjMC4yOCwwLDAuNTEtMC4yMywwLjUxLTAuNTEgICAgICBsLTAuMDEtMjEuMTNMMTMuMTQsMy4yNXoiLz4mI3hhOwkJCTwvZz4mI3hhOwkJCTxnIGlkPSJzaGFwZTMwNDItODEiIHRyYW5zZm9ybT0idHJhbnNsYXRlKDAuNTA3NjkyLC0wLjUwNzY5MikiPiYjeGE7CQkJCTx0aXRsZSBpZD0idGl0bGU1NTk1MCI+cmVjdDE1OTA2PC90aXRsZT4mI3hhOwkJCQk8cmVjdCBpZD0icmVjdDU1OTUyIiB4PSIwIiB5PSI0LjI3IiBzdHlsZT0iZmlsbDojRTVFNUU1OyIgd2lkdGg9IjguMTIiIGhlaWdodD0iMzAuNDYiLz4mI3hhOwkJCTwvZz4mI3hhOwkJCTxnIGlkPSJzaGFwZTMwNDMtODMiIHRyYW5zZm9ybT0idHJhbnNsYXRlKDEzLjIsLTIxLjU3NjkpIj4mI3hhOwkJCQk8dGl0bGUgaWQ9InRpdGxlNTU5NTUiPnBvbHlsaW5lMTU5MDg8L3RpdGxlPiYjeGE7CQkJCTxwYXRoIGlkPSJwYXRoNTU5NTciIGlua3NjYXBlOmNvbm5lY3Rvci1jdXJ2YXR1cmU9IjAiIHN0eWxlPSJmaWxsOm5vbmU7IiBkPSJNMCwyNC41OHYxMC4xNWgxMC42NkwwLDI0LjU4eiIvPiYjeGE7CQkJCSYjeGE7CQkJCQk8cGF0aCBpZD0icGF0aDU1OTU5IiBpbmtzY2FwZTpjb25uZWN0b3ItY3VydmF0dXJlPSIwIiBzdHlsZT0iZmlsbDpub25lO3N0cm9rZTojNTU2QThBO3N0cm9rZS13aWR0aDoxLjU7c3Ryb2tlLW1pdGVybGltaXQ6MzsiIGQ9IiAgICAgIE0wLDI0LjU4djEwLjE1aDEwLjY2Ii8+JiN4YTsJCQk8L2c+JiN4YTsJCTwvZz4mI3hhOwkJPGcgaWQ9Imdyb3VwMzA0NC04NiI+JiN4YTsJCQk8dGl0bGUgaWQ9InRpdGxlNTU5NjMiPmcxNTkzMDwvdGl0bGU+JiN4YTsJCQk8ZyBpZD0ic2hhcGUzMDQ1LTg3Ij4mI3hhOwkJCQk8dGl0bGUgaWQ9InRpdGxlNTU5NjUiPnBvbHlnb24xNTkxMjwvdGl0bGU+JiN4YTsJCQkJPHBhdGggaWQ9InBhdGg1NTk2NyIgaW5rc2NhcGU6Y29ubmVjdG9yLWN1cnZhdHVyZT0iMCIgc3R5bGU9ImZpbGw6I0ZGRkZGRjsiIGQ9Ik0yMy44NiwzNC43M0gwVjIuNzVoMTMuMzVsMTAuNTEsMTBWMzQuNzN6Ii8+JiN4YTsJCQk8L2c+JiN4YTsJCQk8ZyBpZD0ic2hhcGUzMDQ2LTg5IiB0cmFuc2Zvcm09InRyYW5zbGF0ZSgxMy4yLC0yMS44MzA4KSI+JiN4YTsJCQkJPHRpdGxlIGlkPSJ0aXRsZTU1OTcwIj5wb2x5Z29uMTU5MTQ8L3RpdGxlPiYjeGE7CQkJCTxwYXRoIGlkPSJwYXRoNTU5NzIiIGlua3NjYXBlOmNvbm5lY3Rvci1jdXJ2YXR1cmU9IjAiIHN0eWxlPSJmaWxsOiM1NUQyRjY7IiBkPSJNMTAuNjYsMzQuNzNIMFYyNC41OEwxMC42NiwzNC43M3oiLz4mI3hhOwkJCTwvZz4mI3hhOwkJCTxnIGlkPSJzaGFwZTMwNDctOTEiPiYjeGE7CQkJCTx0aXRsZSBpZD0idGl0bGU1NTk3NSI+cGF0aDE1OTE2PC90aXRsZT4mI3hhOwkJCQkmI3hhOwkJCQkJPHBhdGggaWQ9InBhdGg1NTk3NyIgaW5rc2NhcGU6Y29ubmVjdG9yLWN1cnZhdHVyZT0iMCIgc3R5bGU9ImZpbGw6bm9uZTtzdHJva2U6IzU1NkE4QTtzdHJva2Utd2lkdGg6MS41O3N0cm9rZS1taXRlcmxpbWl0OjM7IiBkPSIgICAgICBNMTMuMzksMy4yNUgwLjc0QzAuNDcsMy4yNSwwLDMuMjIsMCwzLjQ5djMwLjQ5YzAuMDksMC4zNywwLjM3LDAuNjYsMC43NCwwLjc1aDIyLjM4YzAuMjcsMCwwLjIzLTAuNDcsMC4yMy0wLjc1VjEyLjgzICAgICAgTDEzLjM5LDMuMjV6Ii8+JiN4YTsJCQk8L2c+JiN4YTsJCQk8ZyBpZD0ic2hhcGUzMDQ4LTkzIiB0cmFuc2Zvcm09InRyYW5zbGF0ZSgwLjUwNzY5MiwtMC41MDc2OTIpIj4mI3hhOwkJCQk8dGl0bGUgaWQ9InRpdGxlNTU5ODAiPnJlY3QxNTkxODwvdGl0bGU+JiN4YTsJCQkJPHJlY3QgaWQ9InJlY3Q1NTk4MiIgeD0iMCIgeT0iNC4yNyIgc3R5bGU9ImZpbGw6I0U1RTVFNTsiIHdpZHRoPSI4LjEyIiBoZWlnaHQ9IjMwLjQ2Ii8+JiN4YTsJCQk8L2c+JiN4YTsJCQk8ZyBpZD0ic2hhcGUzMDQ5LTk1IiB0cmFuc2Zvcm09InRyYW5zbGF0ZSgxMi42OTIzLC0yMS4zMjMxKSI+JiN4YTsJCQkJPHRpdGxlIGlkPSJ0aXRsZTU1OTg1Ij5wb2x5bGluZTE1OTIwPC90aXRsZT4mI3hhOwkJCQk8cGF0aCBpZD0icGF0aDU1OTg3IiBpbmtzY2FwZTpjb25uZWN0b3ItY3VydmF0dXJlPSIwIiBzdHlsZT0iZmlsbDpub25lOyIgZD0iTTAsMjQuNTh2MTAuMTVoMTAuNjZMMCwyNC41OHoiLz4mI3hhOwkJCQkmI3hhOwkJCQkJPHBhdGggaWQ9InBhdGg1NTk4OSIgaW5rc2NhcGU6Y29ubmVjdG9yLWN1cnZhdHVyZT0iMCIgc3R5bGU9ImZpbGw6bm9uZTtzdHJva2U6IzU1NkE4QTtzdHJva2Utd2lkdGg6MS41O3N0cm9rZS1taXRlcmxpbWl0OjM7IiBkPSIgICAgICBNMCwyNC41OHYxMC4xNWgxMC42NiIvPiYjeGE7CQkJPC9nPiYjeGE7CQkJPGcgaWQ9InNoYXBlMzA1MC05OCIgdHJhbnNmb3JtPSJ0cmFuc2xhdGUoMy41NTM4NSwtMjAuODE1NCkiPiYjeGE7CQkJCTx0aXRsZSBpZD0idGl0bGU1NTk5MiI+bGluZTE1OTIyPC90aXRsZT4mI3hhOwkJCQkmI3hhOwkJCQkJPHBhdGggaWQ9InBhdGg1NTk5NCIgaW5rc2NhcGU6Y29ubmVjdG9yLWN1cnZhdHVyZT0iMCIgc3R5bGU9ImZpbGw6bm9uZTtzdHJva2U6I0E3QTlBQztzdHJva2Utd2lkdGg6MS41O3N0cm9rZS1taXRlcmxpbWl0OjM7IiBkPSIgICAgICBNMCwzNC43M2g2LjYiLz4mI3hhOwkJCTwvZz4mI3hhOwkJCTxnIGlkPSJzaGFwZTMwNTEtMTAxIiB0cmFuc2Zvcm09InRyYW5zbGF0ZSgzLjU1Mzg1LC0xNi4yNDYyKSI+JiN4YTsJCQkJPHRpdGxlIGlkPSJ0aXRsZTU1OTk3Ij5saW5lMTU5MjQ8L3RpdGxlPiYjeGE7CQkJCSYjeGE7CQkJCQk8cGF0aCBpZD0icGF0aDU1OTk5IiBpbmtzY2FwZTpjb25uZWN0b3ItY3VydmF0dXJlPSIwIiBzdHlsZT0iZmlsbDpub25lO3N0cm9rZTojQTdBOUFDO3N0cm9rZS13aWR0aDoxLjU7c3Ryb2tlLW1pdGVybGltaXQ6MzsiIGQ9IiAgICAgIE0wLDM0LjczaDE2LjI1Ii8+JiN4YTsJCQk8L2c+JiN4YTsJCQk8ZyBpZD0ic2hhcGUzMDUyLTEwNCIgdHJhbnNmb3JtPSJ0cmFuc2xhdGUoMy41NTM4NSwtMTEuNjc2OSkiPiYjeGE7CQkJCTx0aXRsZSBpZD0idGl0bGU1NjAwMiI+bGluZTE1OTI2PC90aXRsZT4mI3hhOwkJCQkmI3hhOwkJCQkJPHBhdGggaWQ9InBhdGg1NjAwNCIgaW5rc2NhcGU6Y29ubmVjdG9yLWN1cnZhdHVyZT0iMCIgc3R5bGU9ImZpbGw6bm9uZTtzdHJva2U6I0E3QTlBQztzdHJva2Utd2lkdGg6MS41O3N0cm9rZS1taXRlcmxpbWl0OjM7IiBkPSIgICAgICBNMCwzNC43M2gxNi4yNSIvPiYjeGE7CQkJPC9nPiYjeGE7CQkJPGcgaWQ9InNoYXBlMzA1My0xMDciIHRyYW5zZm9ybT0idHJhbnNsYXRlKDMuNTUzODUsLTcuMTA3NjkpIj4mI3hhOwkJCQk8dGl0bGUgaWQ9InRpdGxlNTYwMDciPmxpbmUxNTkyODwvdGl0bGU+JiN4YTsJCQkJJiN4YTsJCQkJCTxwYXRoIGlkPSJwYXRoNTYwMDkiIGlua3NjYXBlOmNvbm5lY3Rvci1jdXJ2YXR1cmU9IjAiIHN0eWxlPSJmaWxsOm5vbmU7c3Ryb2tlOiNBN0E5QUM7c3Ryb2tlLXdpZHRoOjEuNTtzdHJva2UtbWl0ZXJsaW1pdDozOyIgZD0iICAgICAgTTAsMzQuNzNoMTYuMjUiLz4mI3hhOwkJCTwvZz4mI3hhOwkJPC9nPiYjeGE7CTwvZz4mI3hhOzwvZz4mI3hhOzwvc3ZnPg==;" vertex="1" parent="1">
          <mxGeometry x="483.5" y="150" width="53" height="33" as="geometry" />
        </mxCell>
        <mxCell id="feeIY1tUaP1cyDwpqvwu-25" value="EXCEL REPORT" style="sketch=0;pointerEvents=1;shadow=0;dashed=0;html=1;strokeColor=none;fillColor=#505050;labelPosition=center;verticalLabelPosition=bottom;verticalAlign=top;outlineConnect=0;align=center;shape=mxgraph.office.services.excel_services;" vertex="1" parent="1">
          <mxGeometry x="622.4" y="256" width="60" height="49" as="geometry" />
        </mxCell>
      </root>
    </mxGraphModel>
  </diagram>
</mxfile>
